<?xml version="1.0" encoding="UTF-8" standalone="no"?>
<svg width="523px" height="187px" viewBox="0 0 523 187" version="1.1" xmlns="http://www.w3.org/2000/svg" xmlns:xlink="http://www.w3.org/1999/xlink">
    <!-- Generator: Sketch 40.3 (33839) - http://www.bohemiancoding.com/sketch -->
    <title>Group</title>
    <desc>Created with Sketch.</desc>
    <defs>
        <polygon id="path-1" points="0.0120304542 0.445296572 0.0120304542 30.5034838 24.756536 30.5034838 24.756536 0.445296572 0.0120304542 0.445296572"></polygon>
        <polygon id="path-3" points="0 39.2064462 169.990846 39.2064462 169.990846 1.30690769 0 1.30690769"></polygon>
        <polygon id="path-5" points="0.0126446281 0.193752941 0.0126446281 28.6546941 23.4456694 28.6546941 23.4456694 0.193752941 0.0126446281 0.193752941"></polygon>
        <polygon id="path-7" points="4.97521469 8.99509508 4.97521469 0.18932459 0.488513933 0.18932459 0.488513933 8.99509508 4.97521469 8.99509508"></polygon>
    </defs>
    <g id="Page-1" stroke="none" stroke-width="1" fill="none" fill-rule="evenodd">
        <g id="Group">
            <rect id="Rectangle" fill-opacity="0.8" fill="#DEE2E3" opacity="0.75" transform="translate(261.500000, 28.500000) scale(1, -1) translate(-261.500000, -28.500000) " x="0" y="0" width="523" height="57"></rect>
            <rect id="Rectangle" fill-opacity="0.8" fill="#DEE2E3" transform="translate(261.500000, 1.000000) scale(1, -1) translate(-261.500000, -1.000000) " x="0" y="0" width="523" height="2"></rect>
            <rect id="Rectangle" fill-opacity="0.8" fill="#DEE2E3" transform="translate(261.500000, 186.000000) scale(1, -1) translate(-261.500000, -186.000000) " x="0" y="185" width="523" height="2"></rect>
            <rect id="Rectangle" fill-opacity="0.8" fill="#DEE2E3" opacity="0.25" transform="translate(261.500000, 93.500000) scale(1, -1) translate(-261.500000, -93.500000) " x="0" y="57" width="523" height="73"></rect>
            <g id="Give-Blood" transform="translate(11.000000, 67.000000)">
                <g id="Group-5" transform="translate(13.367171, 0.466692)" fill="#E42313">
                    <path d="M6.62637417,0.951570692 C4.20825288,0.951570692 0.438710563,3.93893568 0.438710563,6.99449924 C0.438710563,10.0500628 1.92781345,11.7550272 3.85268612,11.7550272 C5.77221193,11.7550272 9.54041753,8.9134199 9.54041753,4.93115807 C9.54041753,2.09088805 8.26117923,0.951570692 6.62637417,0.951570692" id="Fill-1"></path>
                    <path d="M22.3166262,0.870935907 C18.7235306,0.870935907 16.1436665,5.44558927 16.1436665,7.36718439 C16.1436665,9.28610505 16.9537171,11.7145092 19.5830397,11.7145092 C22.2177091,11.7145092 25.4579115,8.07457744 25.4579115,5.3974491 C25.4579115,2.71497186 24.5409235,2.36194395 23.6827511,2.36194395 C22.8219053,2.36194395 22.1669139,3.17230347 22.1669139,3.87702207 C22.1669139,5.04040951 23.0772183,10.9041497 19.5830397,10.9041497 C18.7729891,10.9041497 18.0190806,9.94402071 18.0190806,8.578712 C18.0190806,4.08028057 22.8219053,2.11054528 22.8219053,1.25204559 C22.8219053,1.09826449 22.6962539,0.870935907 22.3166262,0.870935907" id="Fill-3"></path>
                </g>
                <g id="Group-13" transform="translate(0.000000, 11.164508)">
                    <path d="M26.647055,23.6959289 C26.647055,23.6959289 33.7944816,17.1595636 33.7944816,9.74464017 C33.7944816,2.32971678 29.0705232,0.711672178 25.8383412,0.711672178 C22.5981388,0.711672178 17.4049928,2.39925258 17.4049928,8.26165549 C17.4049928,16.8881065 26.647055,23.6959289 26.647055,23.6959289" id="Fill-6" fill="#E42313"></path>
                    <g id="Group-10">
                        <mask id="mask-2" fill="white">
                            <use xlink:href="#path-1"></use>
                        </mask>
                        <g id="Clip-9"></g>
                        <path d="M24.756536,25.3819046 C24.756536,25.3819046 15.7858273,17.4962773 15.7858273,9.33919296 C15.7858273,6.77840337 16.6600403,4.95977473 16.6600403,4.95977473 C16.6600403,4.95977473 13.8302102,0.445296572 8.97258009,0.445296572 C4.11361331,0.445296572 0.000534686853,3.47679005 0.000534686853,9.54245146 C0.000534686853,18.9110634 12.545625,30.5034838 16.7950488,30.5034838 C20.1689228,30.5034838 24.756536,25.3819046 24.756536,25.3819046" id="Fill-8" fill="#E42313" mask="url(#mask-2)"></path>
                    </g>
                    <path d="M24.756536,25.3819046 C24.756536,25.3819046 30.5258071,29.6610308 31.0310862,30.1678398 C31.5363653,30.6733116 33.3248928,31.0423862 34.8754847,30.1678398 C36.4247399,29.2919562 49.9857352,20.7978906 49.9857352,9.81390853 C49.9857352,4.68831766 47.2869033,0.711404733 41.6873952,0.711404733 C36.0892239,0.711404733 32.516179,5.63106265 32.516179,5.63106265 L32.9212043,6.77840337 C32.9212043,6.77840337 35.819207,3.34306735 40.4723193,3.34306735 C45.1281051,3.34306735 48.6356509,6.03757964 48.6356509,10.8917134 C48.6356509,19.5181644 35.819207,26.4597095 35.2136741,27.0668105 C34.6054678,27.6725743 32.7153498,27.9440314 31.3011031,27.2005332 C29.8801728,26.4597095 26.646654,23.6956614 26.646654,23.6956614" id="Fill-11" fill="#E42313"></path>
                </g>
                <g id="Group-54" transform="translate(56.142120, 11.164508)" fill="#E42313">
                    <path d="M3.86231049,8.32905173 C5.01589737,8.87196587 6.01175164,9.3399953 6.01175164,10.4445448 C6.01175164,11.7376432 4.7218196,12.2070099 3.85429018,12.2070099 C2.89185385,12.2070099 1.75831772,11.7697367 1.43349545,11.636014 C1.37334318,11.6119439 1.30650733,11.6159556 1.25170192,11.6493862 C1.19689652,11.6814797 1.16080516,11.7389804 1.15412157,11.8018301 L0.981685063,13.4051652 C0.970991326,13.5001083 1.02980688,13.5897025 1.12070364,13.6191215 C1.87594883,13.8665085 2.75684542,14.128605 3.64709903,14.128605 C6.56782596,14.128605 8.24273253,12.7485868 8.24273253,10.3415783 C8.24273253,7.965326 6.45955188,7.10548908 5.02659111,6.41547998 C3.97860488,5.91000819 3.07498409,5.47407221 3.07498409,4.60086302 C3.07498409,3.33718356 4.40234421,3.20078641 4.97445914,3.20078641 C5.83263154,3.20078641 6.27642163,3.34253246 7.15731822,3.68753701 C7.21479706,3.71026987 7.27895948,3.70492096 7.33242816,3.67416475 C7.38589685,3.64340853 7.42198821,3.58991945 7.43134523,3.52840701 L7.67329103,1.94379308 C7.6866582,1.84751274 7.6318528,1.75390686 7.53961932,1.72181341 C6.74560934,1.43965853 5.78584644,1.27919129 4.90494985,1.27919129 C2.43737002,1.27919129 0.842666481,2.6445 0.842666481,4.75598134 C0.842666481,6.90891672 2.44672704,7.66311271 3.86231049,8.32905173" id="Fill-14"></path>
                    <path d="M13.0022476,12.4137451 C12.423449,12.4137451 11.5679501,12.0232749 11.5679501,11.1861708 C11.5679501,9.84493219 13.5596586,9.69917445 14.4151576,9.69917445 C14.5835839,9.69917445 14.753347,9.70853504 14.9217734,9.7165584 C15.0300474,9.72190731 15.1383215,9.72725622 15.2465956,9.72993067 L15.2465956,10.3062755 C15.2465956,11.6060601 14.3857498,12.4137451 13.0022476,12.4137451 M17.2904361,13.8539386 C17.3278642,13.8098101 17.3465782,13.7509721 17.3385579,13.6934713 C17.2931096,13.3538157 17.2717221,12.7988665 17.2717221,11.9965303 L17.2717221,8.35927306 C17.2717221,5.73964548 16.0847173,4.52009451 13.5369344,4.52009451 C12.4996419,4.52009451 11.4904205,4.8075983 10.5386779,5.37591975 C10.4731787,5.41469933 10.4344139,5.48690959 10.4397608,5.5617943 L10.5253107,6.9418125 C10.5306576,7.01803444 10.5774427,7.08489578 10.6482887,7.11431478 C10.7191347,7.145071 10.7993377,7.13303595 10.8581533,7.08355856 C11.4797267,6.56070282 12.4074084,6.23441945 13.2776113,6.23441945 C14.6250222,6.23441945 15.1904535,6.76529854 15.2425855,8.11188607 C14.7078986,8.08781599 14.285496,8.08781599 13.7254115,8.08781599 C12.1333814,8.08781599 9.4398964,8.74038274 9.4398964,11.1861708 C9.4398964,13.0569513 10.6883902,14.1294073 12.8645657,14.1294073 C14.1411306,14.1294073 14.9618749,13.5597486 15.4190321,13.0957309 L15.4190321,13.7202159 C15.4190321,13.8312057 15.5099289,13.9221371 15.6208764,13.9221371 L17.1380504,13.9221371 C17.1955292,13.9221371 17.2516713,13.8967298 17.2904361,13.8539386" id="Fill-16"></path>
                    <path d="M21.3396197,13.7880133 C21.3690274,13.8682469 21.4452203,13.921736 21.5307702,13.921736 L23.459653,13.921736 C23.5452029,13.921736 23.6227325,13.8682469 23.6508036,13.7880133 L26.8041193,4.99708336 C26.8255068,4.93557092 26.8174865,4.86603512 26.7787217,4.81254604 C26.7412936,4.75771974 26.6798046,4.72562629 26.6129688,4.72562629 L24.9928676,4.72562629 C24.9073177,4.72562629 24.8297881,4.78178982 24.801717,4.86336066 L22.5493487,11.5133902 L20.3451021,4.86469789 C20.3170311,4.78178982 20.2395015,4.72562629 20.1526148,4.72562629 L18.3774545,4.72562629 C18.3106186,4.72562629 18.2491297,4.75771974 18.2117016,4.81254604 C18.1742735,4.86603512 18.1649165,4.93557092 18.1863039,4.99708336 L21.3396197,13.7880133 Z" id="Fill-18"></path>
                    <path d="M31.5862249,6.23495434 C32.8748202,6.23495434 33.4950569,7.22985118 33.5645662,8.27689988 L29.4581712,8.27689988 C29.5758023,7.59625137 30.0088986,6.23495434 31.5862249,6.23495434 M31.6209795,4.51929217 C29.0772068,4.51929217 27.299373,6.4315267 27.299373,9.16883025 C27.299373,12.3674771 28.9876467,14.128605 32.0514024,14.128605 C33.3573751,14.128605 34.0818757,13.8544735 34.6633477,13.6351682 C34.742214,13.604412 34.8184069,13.574993 34.8945998,13.5482485 C34.9748028,13.5188295 35.0282715,13.4426076 35.0282715,13.357025 L35.0282715,11.7376432 C35.0282715,11.6587468 34.9828231,11.5878738 34.9119771,11.5544431 C34.8397944,11.5210124 34.7569179,11.5317103 34.6967656,11.5811877 C34.345209,11.8713659 33.1501839,12.41428 32.119575,12.41428 C30.8496937,12.41428 29.5383742,11.4742095 29.435447,9.88959557 L35.4974592,9.88959557 C35.6097434,9.88959557 35.6993035,9.79866414 35.6993035,9.68633708 C35.6993035,6.2576872 34.3278317,4.51929217 31.6209795,4.51929217" id="Fill-20"></path>
                    <path d="M43.5769786,12.4137451 C42.99818,12.4137451 42.1426811,12.0232749 42.1426811,11.1861708 C42.1426811,9.84493219 44.1343896,9.69917445 44.9898886,9.69917445 C45.1583149,9.69917445 45.328078,9.70853504 45.4965044,9.7165584 C45.6047784,9.72190731 45.7130525,9.72725622 45.8213266,9.72993067 L45.8213266,10.3062755 C45.8213266,11.6060601 44.9604808,12.4137451 43.5769786,12.4137451 L43.5769786,12.4137451 Z M47.8464531,8.35927306 C47.8464531,5.73964548 46.6594483,4.52009451 44.1116654,4.52009451 C43.0743729,4.52009451 42.0651515,4.8075983 41.1134089,5.37591975 C41.0479097,5.41469933 41.0091449,5.48690959 41.0144918,5.5617943 L41.1000417,6.9418125 C41.1053886,7.01803444 41.1521737,7.08489578 41.2230197,7.11431478 C41.2938657,7.145071 41.3740687,7.13303595 41.4328843,7.08355856 C42.0544577,6.56070282 42.9821394,6.23441945 43.8523423,6.23441945 C45.1997532,6.23441945 45.7651845,6.76529854 45.8173165,8.11188607 C45.2826296,8.08781599 44.860227,8.08781599 44.3001425,8.08781599 C42.7081124,8.08781599 40.0146274,8.74038274 40.0146274,11.1861708 C40.0146274,13.0569513 41.2631212,14.1294073 43.4392967,14.1294073 C44.7158616,14.1294073 45.5366059,13.5597486 45.9937631,13.0957309 L45.9937631,13.7202159 C45.9937631,13.8312057 46.0846599,13.9221371 46.1956074,13.9221371 L47.7127814,13.9221371 C47.7702602,13.9221371 47.8264023,13.8967298 47.8651671,13.8539386 C47.9025952,13.8098101 47.9213092,13.7509721 47.9132889,13.6934713 C47.8678406,13.3538157 47.8464531,12.7988665 47.8464531,11.9965303 L47.8464531,8.35927306 Z" id="Fill-22"></path>
                    <path d="M52.8746482,13.9222709 L54.4947494,13.9222709 C54.6056969,13.9222709 54.6965937,13.8313394 54.6965937,13.7190124 L54.6965937,0.792039518 C54.6965937,0.681049681 54.6056969,0.590118249 54.4947494,0.590118249 L52.8746482,0.590118249 C52.762364,0.590118249 52.6714672,0.681049681 52.6714672,0.792039518 L52.6714672,13.7190124 C52.6714672,13.8313394 52.762364,13.9222709 52.8746482,13.9222709" id="Fill-24"></path>
                    <path d="M56.699397,3.16695457 L58.5253526,3.16695457 C58.6376368,3.16695457 58.7285336,3.07602313 58.7285336,2.96369607 L58.7285336,1.13704407 C58.7285336,1.02471701 58.6376368,0.933785573 58.5253526,0.933785573 L56.699397,0.933785573 C56.5871127,0.933785573 56.496216,1.02471701 56.496216,1.13704407 L56.496216,2.96369607 C56.496216,3.07602313 56.5871127,3.16695457 56.699397,3.16695457" id="Fill-26"></path>
                    <path d="M56.8027252,4.7262949 C56.690441,4.7262949 56.5995442,4.81722633 56.5995442,4.9295534 L56.5995442,13.7191461 C56.5995442,13.8314731 56.690441,13.9224046 56.8027252,13.9224046 L58.4228264,13.9224046 C58.5337739,13.9224046 58.6246707,13.8314731 58.6246707,13.7191461 L58.6246707,4.9295534 C58.6246707,4.81722633 58.5337739,4.7262949 58.4228264,4.7262949 L56.8027252,4.7262949 Z" id="Fill-28"></path>
                    <path d="M64.0751348,13.7195473 L64.0751348,6.44235824 L66.1978416,6.44235824 C66.3101258,6.44235824 66.4010226,6.35142681 66.4010226,6.23909974 L66.4010226,4.92861734 C66.4010226,4.8176275 66.3101258,4.72669607 66.1978416,4.72669607 L64.0751348,4.72669607 L64.0751348,3.98052344 C64.0751348,2.7328907 64.2863361,2.0977079 65.439923,2.0977079 C65.7166234,2.0977079 65.9946606,2.13381303 66.1470463,2.18997656 C66.2071986,2.21137219 66.2740345,2.20334883 66.3275032,2.16858093 C66.3809718,2.1324758 66.4143898,2.07363782 66.4183999,2.00945093 L66.4865725,0.698968522 C66.4919194,0.596002048 66.4183999,0.505070616 66.3154727,0.489023893 C65.9492122,0.430185907 65.6123595,0.383382964 65.1993139,0.383382964 C62.4242891,0.383382964 62.0500083,2.27154741 62.0500083,4.11959504 L62.0500083,4.72669607 L60.1852879,4.72669607 C60.0730037,4.72669607 59.9821069,4.8176275 59.9821069,4.92861734 L59.9821069,6.23909974 C59.9821069,6.35142681 60.0730037,6.44235824 60.1852879,6.44235824 L62.0500083,6.44235824 L62.0500083,13.7195473 C62.0500083,13.8318743 62.1409051,13.9228057 62.2531893,13.9228057 L63.8719538,13.9228057 C63.984238,13.9228057 64.0751348,13.8318743 64.0751348,13.7195473" id="Fill-30"></path>
                    <path d="M69.078467,8.2770336 C69.1960981,7.59638509 69.6278578,6.23508806 71.2065207,6.23508806 C72.495116,6.23508806 73.114016,7.22998491 73.184862,8.2770336 L69.078467,8.2770336 Z M71.6716983,14.1287387 C72.9776709,14.1287387 73.7008349,13.8546072 74.2823068,13.6339647 C74.3625098,13.6045457 74.4387027,13.5751267 74.5135589,13.5483822 C74.5937619,13.5189632 74.6485673,13.4427413 74.6485673,13.3571588 L74.6485673,11.7377769 C74.6485673,11.6588805 74.6031189,11.5880075 74.5309362,11.5545768 C74.4600902,11.5211462 74.3772137,11.5305068 74.3157247,11.5813214 C73.9641681,11.8714996 72.7704797,12.4130765 71.7398708,12.4130765 C70.4699895,12.4130765 69.15867,11.4743432 69.0544061,9.88839207 L75.117755,9.88839207 C75.2287025,9.88839207 75.3195993,9.79879786 75.3195993,9.6864708 C75.3195993,6.25782092 73.9467908,4.5194259 71.2399386,4.5194259 C68.6961659,4.5194259 66.9196688,6.43166042 66.9196688,9.16896397 C66.9196688,12.3676108 68.6066059,14.1287387 71.6716983,14.1287387 L71.6716983,14.1287387 Z" id="Fill-32"></path>
                    <path d="M10.6083208,23.5592643 L6.35221349,23.5592643 C6.24126597,23.5592643 6.1503692,23.6501957 6.1503692,23.7625228 L6.1503692,25.1746344 C6.1503692,25.2869615 6.24126597,25.3778929 6.35221349,25.3778929 L8.68211145,25.3778929 L8.68211145,28.6647967 C8.66740757,28.6688084 8.65136696,28.6728201 8.63666307,28.6754945 C8.28911662,28.7530537 7.92953971,28.8332873 6.95507292,28.8332873 C4.44739157,28.8332873 2.62678284,26.939774 2.62678284,24.3308442 C2.62678284,21.6791232 4.44204471,19.8284011 7.04195953,19.8284011 C8.4669,19.8284011 9.36383719,20.0503808 10.2393869,20.6227139 C10.2995392,20.6614935 10.3743953,20.6655052 10.4398945,20.6347489 C10.5040569,20.6026555 10.5468319,20.5398058 10.5521787,20.4689328 L10.6898606,18.7278633 C10.6965442,18.6355947 10.6417388,18.5500121 10.5535154,18.5205931 C9.59776269,18.1902981 8.77300822,17.9054688 6.95507292,17.9054688 C3.09329712,17.9054688 0.394465226,20.5264336 0.394465226,24.2786924 C0.394465226,28.2141512 2.96363556,30.7562197 6.93769559,30.7562197 C8.38001338,30.7562197 9.60177284,30.5770313 10.67382,30.2106311 C10.7553597,30.1825493 10.8115018,30.1049901 10.8115018,30.0194076 L10.8115018,23.7625228 C10.8115018,23.6501957 10.7206051,23.5592643 10.6083208,23.5592643" id="Fill-34"></path>
                    <path d="M14.7421186,17.5609991 L12.916163,17.5609991 C12.8038787,17.5609991 12.712982,17.6519305 12.712982,17.7642576 L12.712982,19.5909096 C12.712982,19.7032367 12.8038787,19.7928309 12.916163,19.7928309 L14.7421186,19.7928309 C14.8544028,19.7928309 14.9452996,19.7032367 14.9452996,19.5909096 L14.9452996,17.7642576 C14.9452996,17.6519305 14.8544028,17.5609991 14.7421186,17.5609991" id="Fill-36"></path>
                    <path d="M14.638523,21.3529735 L13.0184218,21.3529735 C12.9074743,21.3529735 12.8165775,21.443905 12.8165775,21.556232 L12.8165775,30.3458247 C12.8165775,30.4581518 12.9074743,30.5490832 13.0184218,30.5490832 L14.638523,30.5490832 C14.7508072,30.5490832 14.841704,30.4581518 14.841704,30.3458247 L14.841704,21.556232 C14.841704,21.443905 14.7508072,21.3529735 14.638523,21.3529735" id="Fill-38"></path>
                    <path d="M24.6489303,21.3529735 L23.0288291,21.3529735 C22.9419425,21.3529735 22.8657496,21.4077998 22.8376786,21.4907079 L20.5853102,28.1394003 L18.3797269,21.4920451 C18.3529926,21.4091371 18.275463,21.3529735 18.1872396,21.3529735 L16.413416,21.3529735 C16.3465802,21.3529735 16.2850912,21.385067 16.2476631,21.4385561 C16.2088983,21.4933824 16.1995413,21.5615809 16.2222655,21.6244306 L19.3755812,30.4153605 C19.4036522,30.4955941 19.4811818,30.5490832 19.5667317,30.5490832 L21.4956146,30.5490832 C21.5811644,30.5490832 21.6573573,30.4955941 21.6867651,30.4153605 L24.8400808,21.6244306 C24.8614683,21.5615809 24.8521113,21.4933824 24.8146832,21.4385561 C24.7772551,21.385067 24.7144294,21.3529735 24.6489303,21.3529735" id="Fill-40"></path>
                    <path d="M29.6220527,22.8614992 C30.910648,22.8614992 31.5308848,23.8563961 31.6003941,24.9034448 L27.493999,24.9034448 C27.6116301,24.2227963 28.0447265,22.8614992 29.6220527,22.8614992 M29.6568073,21.1458371 C27.1130346,21.1458371 25.3352008,23.0580716 25.3352008,25.7953752 C25.3352008,28.994022 27.0234746,30.7551499 30.0872303,30.7551499 C31.3932029,30.7551499 32.1177036,30.4810184 32.6991755,30.2617131 C32.7780418,30.2309569 32.8542347,30.2028752 32.9304276,30.1747934 C33.0106306,30.1453744 33.0640993,30.0691525 33.0640993,29.9835699 L33.0640993,28.3641881 C33.0640993,28.2852917 33.0186509,28.2144187 32.9478049,28.180988 C32.8769589,28.1475573 32.7927457,28.1582552 32.7325935,28.2077326 C32.3810369,28.4979108 31.1860117,29.0408249 30.1567395,29.0408249 C28.8855216,29.0408249 27.574202,28.1007544 27.4712748,26.5161405 L33.533287,26.5161405 C33.6455713,26.5161405 33.7351313,26.425209 33.7351313,26.312882 C33.7351313,22.8842321 32.3636595,21.1458371 29.6568073,21.1458371" id="Fill-42"></path>
                    <path d="M42.7384559,22.8614992 C43.3092341,22.8614992 43.7851054,23.0527227 44.1540393,23.4284835 C44.6807059,23.9673859 44.9707735,24.8726886 44.9480493,25.9210745 C44.9667634,26.660561 44.746205,27.7704593 44.065816,28.4684918 C43.6955454,28.8482643 43.243735,29.0408249 42.7210786,29.0408249 C41.0849368,29.0408249 40.3390486,27.4481877 40.3390486,25.9678774 C40.3390486,24.4715205 41.0902837,22.8614992 42.7384559,22.8614992 M43.0833289,21.1458371 C41.8909772,21.1458371 40.9699791,21.5002022 40.3390486,22.1995719 L40.3390486,17.4189856 C40.3390486,17.3066585 40.2481519,17.2157271 40.1372044,17.2157271 L38.5171032,17.2157271 C38.4048189,17.2157271 38.3152589,17.3066585 38.3152589,17.4189856 L38.3152589,30.3459584 C38.3152589,30.4582855 38.4048189,30.5492169 38.5171032,30.5492169 L40.0676951,30.5492169 C40.1799793,30.5492169 40.2708761,30.4582855 40.2708761,30.3459584 L40.2708761,29.6345537 C40.8483379,30.2309569 41.8094375,30.7551499 43.1007062,30.7551499 C46.0348003,30.7551499 47.076103,28.0833704 47.076103,25.7953752 C47.076103,23.4819725 45.8409764,21.1458371 43.0833289,21.1458371" id="Fill-44"></path>
                    <path d="M50.5253679,17.2163957 L48.9052667,17.2163957 C48.7943192,17.2163957 48.7034224,17.3073271 48.7034224,17.4196542 L48.7034224,30.346627 C48.7034224,30.4589541 48.7943192,30.5485483 48.9052667,30.5485483 L50.5253679,30.5485483 C50.6376521,30.5485483 50.7285489,30.4589541 50.7285489,30.346627 L50.7285489,17.4196542 C50.7285489,17.3073271 50.6376521,17.2163957 50.5253679,17.2163957" id="Fill-46"></path>
                    <path d="M56.8540552,29.0404238 C55.0989456,29.0404238 54.2995887,27.4384259 54.2995887,25.9514295 C54.2995887,24.4537354 55.1951892,22.8610981 56.8540552,22.8610981 C58.5022274,22.8610981 59.3911443,24.4537354 59.3911443,25.9514295 C59.3911443,27.4384259 58.5971343,29.0404238 56.8540552,29.0404238 M56.8540552,21.1467731 C54.0977444,21.1467731 52.171535,23.1218573 52.171535,25.9514295 C52.171535,28.6900703 54.184631,30.7560859 56.8540552,30.7560859 C59.5141222,30.7560859 61.5191979,28.6900703 61.5191979,25.9514295 C61.5191979,23.1218573 59.6010089,21.1467731 56.8540552,21.1467731" id="Fill-48"></path>
                    <path d="M67.0358296,29.0404238 C65.28072,29.0404238 64.4813631,27.4384259 64.4813631,25.9514295 C64.4813631,24.4537354 65.3769636,22.8610981 67.0358296,22.8610981 C68.6840018,22.8610981 69.5729187,24.4537354 69.5729187,25.9514295 C69.5729187,27.4384259 68.7789087,29.0404238 67.0358296,29.0404238 M67.0358296,21.1467731 C64.2795188,21.1467731 62.3533094,23.1218573 62.3533094,25.9514295 C62.3533094,28.6900703 64.3664054,30.7560859 67.0358296,30.7560859 C69.6958967,30.7560859 71.7009724,28.6900703 71.7009724,25.9514295 C71.7009724,23.1218573 69.7827833,21.1467731 67.0358296,21.1467731" id="Fill-50"></path>
                    <path d="M76.8902419,29.0404238 C76.3675855,29.0404238 75.9157751,28.8478631 75.5455045,28.4680906 C74.8651155,27.7700582 74.6445572,26.6601598 74.6632712,25.91265 C74.640547,24.8696129 74.9292779,23.9643103 75.453271,23.4280823 C75.822205,23.0523215 76.299413,22.8610981 76.8728646,22.8610981 C78.5210368,22.8610981 79.2722719,24.4724565 79.2722719,25.9688135 C79.2722719,27.4477865 78.5263837,29.0404238 76.8902419,29.0404238 M81.0942173,17.2166632 L79.4741162,17.2166632 C79.3631686,17.2166632 79.2722719,17.3075946 79.2722719,17.4185844 L79.2722719,22.1991707 C78.6413414,21.499801 77.72168,21.1467731 76.5279916,21.1467731 C73.7703442,21.1467731 72.5352175,23.4815714 72.5352175,25.7963112 C72.5352175,28.0843065 73.5765202,30.7560859 76.5106143,30.7560859 C77.801883,30.7560859 78.7629826,30.2305557 79.3404444,29.6341525 L79.3404444,30.3468945 C79.3404444,30.4578843 79.4313412,30.5488158 79.5436255,30.5488158 L81.0942173,30.5488158 C81.2065016,30.5488158 81.2973983,30.4578843 81.2973983,30.3468945 L81.2973983,17.4185844 C81.2973983,17.3075946 81.2065016,17.2166632 81.0942173,17.2166632" id="Fill-52"></path>
                </g>
            </g>
            <g id="Organ-Donation" transform="translate(170.000000, 73.000000)">
                <path d="M20.7767462,35.4880231 C19.3539769,35.4880231 18.0188231,34.9178692 16.9138231,33.8390231 C15.9003615,32.8504077 11.2266692,28.4748692 7.47097692,24.9611 C5.71866923,23.3212538 4.13113077,21.8357154 3.13074615,20.8941769 C3.12551538,20.8915615 3.12028462,20.8876385 3.11505385,20.8824077 C1.12343846,18.9300231 -0.0116384615,16.3865615 0.000130769231,13.9032538 C0.0119,11.1074077 0.523207692,9.28971538 1.95774615,6.95679231 C3.93236154,3.74117692 7.67366923,1.58086923 11.2672077,1.58086923 C12.9920538,1.58086923 14.5795923,2.06340769 15.9866692,3.01279231 C17.9979,4.36886923 19.8064385,6.14863846 21.5548231,7.86825385 C22.1210538,8.42533077 22.7055923,8.99940769 23.2796692,9.54340769 C25.0751308,11.2407923 26.6456692,12.7328692 28.0802077,14.0994077 L30.1594385,12.0293308 C30.1855923,12.0018692 30.2274385,11.9940231 30.2627462,12.0097154 C30.2980538,12.0241 30.3215923,12.0581 30.3215923,12.0973308 L30.3215923,19.3419462 C30.3215923,19.3955615 30.2784385,19.4374077 30.2261308,19.4374077 L22.9488231,19.4374077 C22.9095923,19.4374077 22.8755923,19.4151769 22.8599,19.3785615 C22.8455154,19.3432538 22.8533615,19.3027154 22.8808231,19.2752538 L25.0136692,17.1515615 L24.8815923,17.0260231 C21.9863615,14.2576385 18.9917462,11.3937923 15.9735923,8.65940769 C13.7243615,6.61940769 11.0200538,4.53233077 8.02151538,4.53233077 C7.26436154,4.53233077 6.5059,4.66833077 5.76705385,4.93640769 C4.53259231,5.38233077 3.71920769,5.75763846 2.83782308,7.19086923 C2.30166923,8.04086923 2.11859231,10.1449462 2.15913077,10.6588692 C2.34220769,12.9577923 3.40274615,15.1207154 5.22697692,16.9135615 C5.22959231,16.9161769 5.23220769,16.9174846 5.23482308,16.9201 L14.5573615,25.6816385 C15.2700538,26.3511769 16.0769,27.0756385 16.8575923,27.7765615 C17.8867462,28.7011 18.9512077,29.6570231 19.8116692,30.4978692 C20.9088231,31.5701769 22.2282846,32.1364077 23.6249,32.1364077 C24.7272846,32.1364077 25.8165923,31.7833308 26.8627462,31.0837154 C26.9856692,31.0013308 27.0680538,31.0157154 27.1072846,31.0850231 C27.1425923,31.1438692 27.1360538,31.2236385 27.0026692,31.4564077 C26.7385154,31.8748692 26.4115923,32.2567154 26.1879769,32.5104077 C25.6439769,33.1237154 25.0254385,33.8181 24.2068231,34.3673308 C23.0939769,35.1114077 21.9405923,35.4880231 20.7767462,35.4880231 L20.7767462,35.4880231 Z" id="Fill-1" fill="#E30B22"></path>
                <path d="M27.0926385,29.4675385 C25.8686385,29.4675385 24.7217923,28.9706154 23.6834846,27.9911538 L11.8096385,16.83 L9.68463846,18.9458462 C9.65717692,18.9733077 9.61663846,18.9811538 9.58133077,18.9654615 C9.54602308,18.9510769 9.52248462,18.9157692 9.52248462,18.8778462 L9.52248462,11.6332308 C9.52248462,11.5796154 9.56563846,11.5377692 9.61794615,11.5377692 L16.8965615,11.5377692 C16.9344846,11.5377692 16.9697923,11.56 16.9841769,11.5966154 C16.9985615,11.6319231 16.9907154,11.6724615 16.9632538,11.6999231 L14.8853308,13.77 C18.5494846,17.2144615 22.3365615,20.7753077 25.9588692,24.1818462 C27.0024077,25.1626154 28.1924077,25.7026923 29.3131,25.7026923 C29.7145615,25.7026923 30.1094846,25.6333846 30.4874077,25.4960769 C31.4956385,25.1312308 32.2174846,24.3426923 32.9157923,23.5816154 C33.0531,23.4325385 33.1904077,23.2821538 33.3290231,23.1356923 C33.3591,23.1069231 36.1183308,20.4013077 37.3959462,18.8922308 C38.1021,18.0553077 38.9952538,16.6900769 39.1874846,15.5981538 C39.4372538,14.1845385 39.4084846,13.5084615 39.0449462,12.3093077 C38.4146385,10.217 37.0690231,8.37315385 35.2591769,7.11776923 C33.5670231,5.94476923 31.6421,5.32492308 29.6949462,5.32492308 C27.3541769,5.32492308 25.1677154,6.23246154 23.5357154,7.87884615 C23.5004077,7.91415385 23.4533308,7.956 23.3944846,7.956 C23.3552538,7.956 23.3199462,7.93638462 23.2977154,7.90369231 C23.2231769,7.79646154 23.3277923,7.50223077 23.3291,7.49830769 L23.3957923,7.27861538 C23.4991,6.93730769 23.5971769,6.61430769 23.7318692,6.28738462 C24.1529462,5.26476923 24.6093308,4.539 25.2082538,3.93353846 C26.8873308,2.24138462 29.1980231,1.30769231 31.7166385,1.30769231 C35.1454077,1.30769231 38.2289462,3.03123077 39.9642538,5.91861538 C42.9536385,10.8891538 40.7475615,16.9241538 37.2311769,20.7086154 C37.2285615,20.7125385 37.2246385,20.7177692 37.2207154,20.7216923 L31.3099462,26.9423846 C31.1804846,27.0783846 31.0510231,27.2196154 30.9215615,27.3621538 C30.1866385,28.1650769 29.4268692,28.9954615 28.3401769,29.2949231 C27.9230231,29.41 27.5032538,29.4675385 27.0926385,29.4675385" id="Fill-3" fill="#E30B22"></path>
                <path d="M50.8479154,19.0821077 C49.9796077,19.0821077 49.1191462,18.8258 48.3816077,18.5851846 L48.2207615,18.5315692 L48.4365308,16.5229538 L48.6954538,16.6301846 C49.0106077,16.7596462 50.1156077,17.1846462 51.0493,17.1846462 C51.8888385,17.1846462 53.1389923,16.7308769 53.1389923,15.4807231 C53.1389923,14.4123385 52.1726077,13.9572615 51.0519154,13.4315692 C49.6696846,12.7816462 48.1030692,12.0454154 48.1030692,9.94003077 C48.1030692,7.87518462 49.6618385,6.54133846 52.0732231,6.54133846 C52.9323769,6.54133846 53.8699923,6.69826154 54.6441462,6.97287692 L54.8076077,7.03041538 L54.5081462,9.00633846 L54.2636077,8.91087692 C53.4070692,8.5748 52.9755308,8.43749231 52.1412231,8.43749231 C51.4533769,8.43749231 50.3026077,8.61403077 50.3026077,9.78964615 C50.3026077,10.6318 51.1800692,11.0554923 52.1974538,11.5445692 C53.5966846,12.2193385 55.3385308,13.0588769 55.3385308,15.3800308 C55.3385308,17.7325692 53.7013,19.0821077 50.8479154,19.0821077" id="Fill-5" fill="#E30B22"></path>
                <mask id="mask-4" fill="white">
                    <use xlink:href="#path-3"></use>
                </mask>
                <g id="Clip-8"></g>
                <path d="M56.8833077,8.40506154 L59.0828462,8.40506154 L59.0828462,6.20552308 L56.8833077,6.20552308 L56.8833077,8.40506154 Z M56.984,18.8809846 L58.9821538,18.8809846 L58.9821538,9.89844615 L56.984,9.89844615 L56.984,18.8809846 Z" id="Fill-7" fill="#E30B22" mask="url(#mask-4)"></path>
                <path d="M64.6660385,11.3930077 C63.2537308,11.3930077 62.4926538,12.9282385 62.4926538,14.3732385 C62.4926538,15.7698538 63.2380385,17.1847769 64.6660385,17.1847769 C65.9724231,17.1847769 66.9584231,16.0261615 66.9584231,14.4909308 C66.9584231,13.0616231 66.3581923,11.3930077 64.6660385,11.3930077 M64.3312692,22.6077769 C63.4525,22.6077769 62.6574231,22.5097 61.1901923,22.0088538 L61.0293462,21.9552385 L61.2503462,20.0381615 L61.5131923,20.1597769 C62.6495769,20.6802385 63.3531154,20.9117 64.5156538,20.9117 C66.0443462,20.9117 66.9584231,19.8917 66.9584231,18.1838538 L66.9584231,17.8569308 C66.2797308,18.5055462 65.3068077,18.8808538 64.2632692,18.8808538 C61.5903462,18.8808538 60.3938077,16.6590846 60.3938077,14.4569308 C60.3938077,12.0913154 61.7799615,9.69693077 64.4319615,9.69693077 C65.6258846,9.69693077 66.4981154,10.0369308 67.0748077,10.7326231 L67.0748077,9.89831538 L68.9552692,9.89831538 L68.9552692,18.3015462 C68.9552692,21.1588538 67.4004231,22.6077769 64.3312692,22.6077769" id="Fill-9" fill="#E30B22" mask="url(#mask-4)"></path>
                <path d="M78.5972769,18.8808538 L76.6004308,18.8808538 L76.6004308,14.2385462 C76.6004308,12.2364692 76.1610462,11.4649308 74.9828154,11.3917 C72.9153538,11.3930077 72.6041231,13.4696231 72.6041231,14.7093154 L72.6041231,18.8808538 L70.6059692,18.8808538 L70.6059692,9.89831538 L72.5531231,9.89831538 L72.5531231,10.8202385 C73.1481231,10.1232385 74.1158154,9.69693077 75.1802769,9.69693077 C77.4164308,9.69693077 78.5972769,11.0412385 78.5972769,13.5833923 L78.5972769,18.8808538" id="Fill-10" fill="#E30B22" mask="url(#mask-4)"></path>
                <path d="M88.4571462,19.0821077 C86.2223,19.0821077 85.0401462,17.7378 85.0401462,15.1956462 L85.0401462,9.89818462 L87.0383,9.89818462 L87.0383,14.5404923 C87.0383,16.5438769 87.4763769,17.3141077 88.6546077,17.3860308 C90.7233769,17.3860308 91.0346077,15.3081077 91.0346077,14.0710308 L91.0346077,9.89818462 L93.0314538,9.89818462 L93.0314538,18.8807231 L91.0843,18.8807231 L91.0843,17.9588 C90.4893,18.6571077 89.5216077,19.0821077 88.4571462,19.0821077" id="Fill-11" fill="#E30B22" mask="url(#mask-4)"></path>
                <path d="M98.9426154,11.3930077 C97.3446154,11.3930077 96.6175385,12.9557 96.6175385,14.4072385 C96.6175385,15.8417769 97.3393846,17.3861615 98.9256154,17.3861615 C99.4303846,17.3861615 99.8684615,17.2004692 100.228077,16.8330077 C100.887154,16.1556231 101.100308,15.0780846 101.083308,14.3614692 C101.104231,13.3427769 100.824385,12.4653154 100.313077,11.9422385 C99.9560769,11.5773923 99.4957692,11.3930077 98.9426154,11.3930077 M96.6175385,22.4063923 L94.6193846,22.4063923 L94.6193846,9.89831538 L96.5508462,9.89831538 L96.5508462,10.7705462 C97.1157692,10.1977769 98.0429231,9.69693077 99.2773846,9.69693077 C101.975154,9.69693077 103.180846,11.9775462 103.180846,14.2385462 C103.180846,16.4733923 102.163462,19.0822385 99.2943846,19.0822385 C98.1331538,19.0822385 97.2347692,18.7448538 96.6175385,18.0753154 L96.6175385,22.4063923" id="Fill-12" fill="#E30B22" mask="url(#mask-4)"></path>
                <path d="M112.258846,19.0821077 C110.422846,19.0821077 109.413308,18.1248769 109.413308,16.3869538 L109.413308,11.5942615 L107.481846,11.5942615 L107.481846,9.89818462 L109.413308,9.89818462 L109.413308,7.97326154 L111.411462,7.33641538 L111.411462,9.89818462 L113.677692,9.89818462 L113.677692,11.5942615 L111.411462,11.5942615 L111.411462,16.0678769 C111.411462,16.8694923 111.849538,17.3860308 112.526923,17.3860308 C112.887846,17.3860308 113.210846,17.2958 113.488077,17.1166462 L113.812385,16.9100308 L113.812385,18.7957231 L113.659385,18.8388769 C113.341615,18.9304154 112.808077,19.0821077 112.258846,19.0821077" id="Fill-13" fill="#E30B22" mask="url(#mask-4)"></path>
                <path d="M119.075454,11.3930077 C117.466992,11.3930077 116.599992,12.9373923 116.599992,14.3902385 C116.599992,15.8326231 117.374146,17.3861615 119.075454,17.3861615 C120.764992,17.3861615 121.535223,15.8326231 121.535223,14.3902385 C121.535223,12.9373923 120.673454,11.3930077 119.075454,11.3930077 M119.075454,19.0822385 C116.467915,19.0822385 114.501146,17.0644692 114.501146,14.3902385 C114.501146,11.6270846 116.381608,9.69693077 119.075454,9.69693077 C121.758838,9.69693077 123.634069,11.6270846 123.634069,14.3902385 C123.634069,17.0644692 121.673838,19.0822385 119.075454,19.0822385" id="Fill-14" fill="#E30B22" mask="url(#mask-4)"></path>
                <path d="M128.8294,11.3930077 C128.273631,11.3930077 127.810708,11.5773923 127.455015,11.9409308 C126.946323,12.4613923 126.667785,13.3401615 126.688708,14.3523154 C126.671708,15.0793923 126.884862,16.1556231 127.543938,16.8330077 C127.903554,17.2004692 128.340323,17.3861615 128.8464,17.3861615 C130.432631,17.3861615 131.154477,15.8417769 131.154477,14.4072385 C131.154477,12.9557 130.4274,11.3930077 128.8294,11.3930077 M128.477631,19.0822385 C125.608554,19.0822385 124.589862,16.4733923 124.589862,14.2385462 C124.589862,11.9775462 125.796862,9.69693077 128.493323,9.69693077 C129.6454,9.69693077 130.538554,10.0356231 131.154477,10.7038538 L131.154477,5.86931538 L133.152631,5.86931538 L133.152631,18.8808538 L131.221169,18.8808538 L131.221169,18.0086231 C130.654938,18.5813923 129.723862,19.0822385 128.477631,19.0822385" id="Fill-15" fill="#E30B22" mask="url(#mask-4)"></path>
                <path d="M139.350046,14.7676385 C138.519662,14.7676385 136.5882,14.9075615 136.5882,16.2034846 C136.5882,17.0103308 137.414662,17.3869462 137.973046,17.3869462 C139.314738,17.3869462 140.147738,16.6049462 140.147738,15.3469462 L140.147738,14.7977154 C140.044431,14.7937923 139.943738,14.7885615 139.843046,14.7846385 C139.678277,14.7767923 139.514815,14.7676385 139.350046,14.7676385 M137.838354,19.0817154 C135.710738,19.0817154 134.489354,18.0329462 134.489354,16.2034846 C134.489354,13.8104077 137.123046,13.1722538 138.6792,13.1722538 C139.219277,13.1722538 139.628585,13.1722538 140.142508,13.1957923 C140.088892,11.9024846 139.540969,11.3924846 138.242431,11.3924846 C137.395046,11.3924846 136.495354,11.7089462 135.892508,12.2163308 L135.573431,12.4857154 L135.455738,10.5987154 L135.565585,10.5333308 C136.496662,9.97886923 137.481354,9.69771538 138.493508,9.69771538 C140.985969,9.69771538 142.145892,10.8903308 142.145892,13.4494846 L142.145892,16.9920231 C142.145892,17.7740231 142.166815,18.3154077 142.211277,18.6423308 L142.242662,18.8803308 L140.315123,18.8803308 L140.315123,18.0931 C139.863969,18.5429462 139.067585,19.0817154 137.838354,19.0817154" id="Fill-16" fill="#E30B22" mask="url(#mask-4)"></path>
                <path d="M144.727408,22.6084308 C144.273638,22.6084308 143.985946,22.5561231 143.732254,22.5090462 L143.428869,22.4554308 L143.564869,20.7044308 L143.819869,20.7881231 C143.988562,20.8456615 144.243562,20.9123538 144.492023,20.9123538 C145.697715,20.9123538 146.150177,19.1966615 146.163254,19.0018154 C146.163254,18.9155077 146.053408,18.6369692 145.980177,18.4525846 C145.940946,18.3518923 145.901715,18.2551231 145.872946,18.1701231 L142.866562,9.89896923 L145.047792,9.89896923 L147.214638,16.5721231 L149.428562,9.89896923 L151.473792,9.89896923 L148.170562,19.0528154 C147.576869,20.7201231 146.903408,22.6084308 144.727408,22.6084308" id="Fill-17" fill="#E30B22" mask="url(#mask-4)"></path>
                <path d="M54.0250846,25.0366846 C51.5234692,25.0366846 50.4027769,27.2336077 50.4027769,29.4096077 C50.4027769,31.4273769 51.3587,33.7838385 54.0551615,33.7838385 C56.7490077,33.7838385 57.7062385,31.4273769 57.7062385,29.4096077 C57.7062385,27.2336077 56.5855462,25.0366846 54.0826231,25.0366846 L54.0250846,25.0366846 Z M54.0551615,35.6813 C50.4995462,35.6813 48.2032385,33.2189154 48.2032385,29.4096077 C48.2032385,25.6591462 50.5544692,23.1392231 54.0551615,23.1392231 C57.5545462,23.1392231 59.9044692,25.6591462 59.9044692,29.4096077 C59.9044692,33.2189154 57.6081615,35.6813 54.0551615,35.6813 L54.0551615,35.6813 Z" id="Fill-18" fill="#E30B22" mask="url(#mask-4)"></path>
                <path d="M63.5490077,35.4788692 L61.5521615,35.4788692 L61.5521615,26.4963308 L63.4483154,26.4963308 L63.4483154,27.3607154 C63.9687769,26.7121 64.7455462,26.2962538 65.5040077,26.2962538 C65.9800077,26.2962538 66.2337,26.3459462 66.5540846,26.4100231 L66.7554692,26.4505615 L66.7554692,28.3467154 L66.4664692,28.2277154 C66.2480846,28.1374846 65.9813154,28.0917154 65.6727,28.0917154 C64.3833154,28.0917154 63.5490077,29.3811 63.5490077,31.3740231 L63.5490077,35.4788692" id="Fill-19" fill="#E30B22" mask="url(#mask-4)"></path>
                <path d="M71.6160308,27.9916769 C70.2037231,27.9916769 69.4426462,29.5269077 69.4426462,30.9719077 C69.4426462,32.3685231 70.1880308,33.7834462 71.6160308,33.7834462 C72.9224154,33.7834462 73.9071077,32.6248308 73.9071077,31.0896 C73.9071077,29.6602923 73.3081846,27.9916769 71.6160308,27.9916769 M71.2799538,39.2064462 C70.4024923,39.2064462 69.6074154,39.1083692 68.1401846,38.6075231 L67.9793385,38.5539077 L68.2003385,36.6368308 L68.4631846,36.7584462 C69.5995692,37.2789077 70.3018,37.5103692 71.4656462,37.5103692 C72.9943385,37.5103692 73.9071077,36.4916769 73.9071077,34.7825231 L73.9071077,34.4556 C73.2297231,35.1042154 72.2568,35.4795231 71.2132615,35.4795231 C68.5403385,35.4795231 67.3438,33.2577538 67.3438,31.0556 C67.3438,28.6899846 68.7299538,26.2956 71.3806462,26.2956 C72.5758769,26.2956 73.4468,26.6356 74.0248,27.3312923 L74.0248,26.4969846 L75.9052615,26.4969846 L75.9052615,34.9002154 C75.9052615,37.7575231 74.3491077,39.2064462 71.2799538,39.2064462" id="Fill-20" fill="#E30B22" mask="url(#mask-4)"></path>
                <path d="M82.2936,31.3663077 C81.4632154,31.3663077 79.5317538,31.5062308 79.5317538,32.8021538 C79.5317538,33.609 80.3582154,33.9856154 80.9166,33.9856154 C82.2582923,33.9856154 83.0912923,33.2036154 83.0912923,31.9456154 L83.0912923,31.3963846 C82.9879846,31.3937692 82.8872923,31.3885385 82.7866,31.3833077 C82.6231385,31.3754615 82.4583692,31.3663077 82.2936,31.3663077 M80.7819077,35.6803846 C78.6542923,35.6803846 77.4329077,34.6316154 77.4329077,32.8021538 C77.4329077,30.4090769 80.0666,29.7709231 81.6227538,29.7709231 C82.1628308,29.7709231 82.5721385,29.7709231 83.0860615,29.7944615 C83.0324462,28.5011538 82.4845231,27.9911538 81.1859846,27.9911538 C80.3399077,27.9911538 79.4389077,28.3076154 78.8360615,28.8163077 L78.5169846,29.0843846 L78.3992923,27.1973846 L78.5104462,27.132 C79.4402154,26.5775385 80.4262154,26.2963846 81.4370615,26.2963846 C83.9295231,26.2963846 85.0894462,27.489 85.0894462,30.0481538 L85.0894462,33.5906923 C85.0894462,34.374 85.1103692,34.9140769 85.1548308,35.2423077 L85.1862154,35.479 L83.2586769,35.479 L83.2586769,34.6917692 C82.8075231,35.1416154 82.0111385,35.6803846 80.7819077,35.6803846" id="Fill-21" fill="#E30B22" mask="url(#mask-4)"></path>
                <path d="M95.1627308,35.4788692 L93.1658846,35.4788692 L93.1658846,30.8365615 C93.1658846,28.8344846 92.7265,28.0629462 91.5482692,27.9910231 C89.4795,27.9910231 89.1695769,30.0689462 89.1695769,31.3073308 L89.1695769,35.4788692 L87.1714231,35.4788692 L87.1714231,26.4963308 L89.1185769,26.4963308 L89.1185769,27.4182538 C89.7135769,26.7212538 90.6812692,26.2962538 91.7457308,26.2962538 C93.9818846,26.2962538 95.1627308,27.6405615 95.1627308,30.1827154 L95.1627308,35.4788692" id="Fill-22" fill="#E30B22" mask="url(#mask-4)"></path>
                <path d="M103.657762,33.5820615 L105.2113,33.5820615 C108.085608,33.5820615 109.483531,32.2063692 109.483531,29.3765231 C109.483531,26.9010615 107.847608,25.2376769 105.412685,25.2376769 L103.657762,25.2376769 L103.657762,33.5820615 Z M105.2283,35.4795231 L101.558915,35.4795231 L101.558915,23.3402154 L105.2283,23.3402154 C109.028454,23.3402154 111.683069,25.7960615 111.683069,29.3098308 C111.683069,33.2302923 109.329223,35.4795231 105.2283,35.4795231 L105.2283,35.4795231 Z" id="Fill-23" fill="#E30B22" mask="url(#mask-4)"></path>
                <path d="M117.215262,27.9916769 C115.6068,27.9916769 114.7398,29.5360615 114.7398,30.9889077 C114.7398,32.4312923 115.513954,33.9848308 117.215262,33.9848308 C118.9048,33.9848308 119.675031,32.4312923 119.675031,30.9889077 C119.675031,29.5360615 118.813262,27.9916769 117.215262,27.9916769 M117.215262,35.6809077 C114.607723,35.6809077 112.640954,33.6631385 112.640954,30.9889077 C112.640954,28.2257538 114.521415,26.2956 117.215262,26.2956 C119.898646,26.2956 121.773877,28.2257538 121.773877,30.9889077 C121.773877,33.6631385 119.813646,35.6809077 117.215262,35.6809077" id="Fill-24" fill="#E30B22" mask="url(#mask-4)"></path>
                <path d="M131.040577,35.4788692 L129.043731,35.4788692 L129.043731,30.8365615 C129.043731,28.8344846 128.604346,28.0629462 127.426115,27.9910231 C125.357346,27.9910231 125.047423,30.0689462 125.047423,31.3073308 L125.047423,35.4788692 L123.049269,35.4788692 L123.049269,26.4963308 L124.996423,26.4963308 L124.996423,27.4182538 C125.591423,26.7212538 126.559115,26.2962538 127.623577,26.2962538 C129.858423,26.2962538 131.040577,27.6405615 131.040577,30.1827154 L131.040577,35.4788692" id="Fill-25" fill="#E30B22" mask="url(#mask-4)"></path>
                <path d="M137.177446,31.3663077 C136.347062,31.3663077 134.4156,31.5062308 134.4156,32.8021538 C134.4156,33.609 135.242062,33.9856154 135.800446,33.9856154 C137.142138,33.9856154 137.975138,33.2036154 137.975138,31.9456154 L137.975138,31.3963846 C137.871831,31.3937692 137.771138,31.3885385 137.670446,31.3833077 C137.505677,31.3754615 137.342215,31.3663077 137.177446,31.3663077 M135.665754,35.6803846 C133.538138,35.6803846 132.316754,34.6316154 132.316754,32.8021538 C132.316754,30.4090769 134.950446,29.7709231 136.5066,29.7709231 C137.046677,29.7709231 137.455985,29.7709231 137.969908,29.7944615 C137.916292,28.5011538 137.368369,27.9911538 136.069831,27.9911538 C135.223754,27.9911538 134.322754,28.3076154 133.719908,28.8163077 L133.400831,29.0843846 L133.283138,27.1973846 L133.394292,27.132 C134.324062,26.5775385 135.308754,26.2963846 136.320908,26.2963846 C138.813369,26.2963846 139.973292,27.489 139.973292,30.0481538 L139.973292,33.5906923 C139.973292,34.374 139.994215,34.9140769 140.038677,35.2423077 L140.070062,35.479 L138.142523,35.479 L138.142523,34.6917692 C137.691369,35.1416154 136.894985,35.6803846 135.665754,35.6803846" id="Fill-26" fill="#E30B22" mask="url(#mask-4)"></path>
                <path d="M145.353531,35.6809077 C143.517531,35.6809077 142.507992,34.7236769 142.507992,32.9870615 L142.507992,28.1930615 L140.576531,28.1930615 L140.576531,26.4969846 L142.507992,26.4969846 L142.507992,24.5720615 L144.506146,23.9352154 L144.506146,26.4969846 L146.772377,26.4969846 L146.772377,28.1930615 L144.506146,28.1930615 L144.506146,32.6679846 C144.506146,33.4682923 144.944223,33.9848308 145.621608,33.9848308 C145.981223,33.9848308 146.305531,33.8946 146.582762,33.7154462 L146.907069,33.5088308 L146.907069,35.3945231 L146.754069,35.4376769 C146.4363,35.5292154 145.904069,35.6809077 145.353531,35.6809077" id="Fill-27" fill="#E30B22" mask="url(#mask-4)"></path>
                <path d="M148.013769,25.0036 L150.213308,25.0036 L150.213308,22.8040615 L148.013769,22.8040615 L148.013769,25.0036 Z M148.115769,35.4795231 L150.112615,35.4795231 L150.112615,26.4969846 L148.115769,26.4969846 L148.115769,35.4795231 Z" id="Fill-28" fill="#E30B22" mask="url(#mask-4)"></path>
                <path d="M156.165792,27.9916769 C154.557331,27.9916769 153.690331,29.5360615 153.690331,30.9889077 C153.690331,32.4312923 154.464485,33.9848308 156.165792,33.9848308 C157.856638,33.9848308 158.625562,32.4312923 158.625562,30.9889077 C158.625562,29.5360615 157.763792,27.9916769 156.165792,27.9916769 M156.165792,35.6809077 C153.558254,35.6809077 151.591485,33.6631385 151.591485,30.9889077 C151.591485,28.2257538 153.471946,26.2956 156.165792,26.2956 C158.849177,26.2956 160.724408,28.2257538 160.724408,30.9889077 C160.724408,33.6631385 158.764177,35.6809077 156.165792,35.6809077" id="Fill-29" fill="#E30B22" mask="url(#mask-4)"></path>
                <path d="M169.991108,35.4788692 L167.994262,35.4788692 L167.994262,30.8365615 C167.994262,28.8344846 167.554877,28.0629462 166.376646,27.9910231 C164.309185,27.9910231 163.997954,30.0689462 163.997954,31.3073308 L163.997954,35.4788692 L161.9998,35.4788692 L161.9998,26.4963308 L163.946954,26.4963308 L163.946954,27.4182538 C164.541954,26.7212538 165.509646,26.2962538 166.574108,26.2962538 C168.810262,26.2962538 169.991108,27.6405615 169.991108,30.1827154 L169.991108,35.4788692" id="Fill-30" fill="#E30B22" mask="url(#mask-4)"></path>
            </g>
            <g id="Give-Platelets" transform="translate(360.000000, 69.000000)">
                <g id="Group-5" transform="translate(12.644628, 0.679526)" fill="#F49800">
                    <path d="M6.29032314,0.661820588 C4.00038099,0.661820588 0.430802479,3.48970294 0.430802479,6.38335 C0.430802479,9.27573235 1.84067851,10.8920265 3.66403388,10.8920265 C5.4823314,10.8920265 9.05064545,8.20073235 9.05064545,4.43064412 C9.05064545,1.74061471 7.83929008,0.661820588 6.29032314,0.661820588" id="Fill-1"></path>
                    <path d="M21.1496579,0.585432353 C17.7469884,0.585432353 15.3040463,4.91705 15.3040463,6.73569706 C15.3040463,8.55434412 16.0715752,10.8523147 18.5613025,10.8523147 C21.0560876,10.8523147 24.1249388,7.40725588 24.1249388,4.87152059 C24.1249388,2.33199118 23.2562529,1.99810882 22.4432033,1.99810882 C21.6276248,1.99810882 21.008038,2.76452059 21.008038,3.43228529 C21.008038,4.53257941 21.8704017,10.0859029 18.5613025,10.0859029 C17.7937736,10.0859029 17.0806165,9.17531471 17.0806165,7.88278529 C17.0806165,3.62452059 21.6276248,1.75907941 21.6276248,0.945873529 C21.6276248,0.800432353 21.5100298,0.585432353 21.1496579,0.585432353" id="Fill-3"></path>
                </g>
                <g id="Group-11" transform="translate(0.000000, 10.797174)">
                    <path d="M25.2360223,22.2095 C25.2360223,22.2095 32.0046917,16.0200294 32.0046917,8.99964706 C32.0046917,1.978 27.5310223,0.446441176 24.4697579,0.446441176 C21.4009066,0.446441176 16.4834107,2.04376471 16.4834107,7.59582353 C16.4834107,15.7632941 25.2360223,22.2095 25.2360223,22.2095" id="Fill-6" fill="#F49800"></path>
                    <g id="Group-10">
                        <mask id="mask-6" fill="white">
                            <use xlink:href="#path-5"></use>
                        </mask>
                        <g id="Clip-9"></g>
                        <path d="M23.4456694,23.8058118 C23.4456694,23.8058118 14.9497438,16.3389882 14.9497438,8.61669412 C14.9497438,6.19098824 15.7779669,4.46845882 15.7779669,4.46845882 C15.7779669,4.46845882 13.0973058,0.193752941 8.49719008,0.193752941 C3.89580992,0.193752941 0,3.06463529 0,8.80766471 C0,17.6783118 11.8808926,28.6546941 15.9056777,28.6546941 C19.1009752,28.6546941 23.4456694,23.8058118 23.4456694,23.8058118" id="Fill-8" fill="#F49800" mask="url(#mask-6)"></path>
                    </g>
                </g>
                <g id="Group-62" transform="translate(22.760331, 10.797174)" fill="#F49800">
                    <path d="M0.685338843,23.8058118 C0.685338843,23.8058118 6.14908264,27.8579294 6.62704959,28.3372529 C7.10501653,28.8165765 8.80066116,29.1656353 10.2687025,28.3372529 C11.7354793,27.5076059 24.5786281,19.4653412 24.5786281,9.06566471 C24.5786281,4.21172353 22.0218843,0.446694118 16.7199917,0.446694118 C11.4180992,0.446694118 8.03439669,5.10460588 8.03439669,5.10460588 L8.41752893,6.19098824 C8.41752893,6.19098824 11.1626777,2.93816471 15.5693306,2.93816471 C19.9772479,2.93816471 23.3002562,5.48907647 23.3002562,10.0850176 C23.3002562,18.2537529 11.1626777,24.8264294 10.5886116,25.4006059 C10.013281,25.9747824 8.22280165,26.2315176 6.88373554,25.5283412 C5.53834711,24.8264294 2.47581818,22.2097529 2.47581818,22.2097529" id="Fill-12"></path>
                    <path d="M70.8843942,20.9106471 C71.4243198,20.9106471 71.8757331,21.0915 72.2247248,21.4481471 C72.7241876,21.9578235 72.998576,22.8152941 72.9770802,23.8080882 C72.9947826,24.5074706 72.7861463,25.5584412 72.1412702,26.2186176 C71.791014,26.5790588 71.3623612,26.7611765 70.8679562,26.7611765 C69.3177248,26.7611765 68.6121545,25.2536471 68.6121545,23.8523529 C68.6121545,22.4358824 69.3227826,20.9106471 70.8843942,20.9106471 M71.2106256,19.2867647 C69.9980058,19.2867647 69.0926504,19.7837941 68.5476669,20.3478529 L68.5476669,19.6737647 C68.5476669,19.5675294 68.4616835,19.4827941 68.3554686,19.4827941 L66.8861628,19.4827941 C66.7812124,19.4827941 66.6952289,19.5675294 66.6952289,19.6737647 L66.6952289,31.4254118 C66.6952289,31.5303824 66.7812124,31.6176471 66.8861628,31.6176471 L68.4199562,31.6176471 C68.5261711,31.6176471 68.6121545,31.5303824 68.6121545,31.4254118 L68.6121545,27.3872059 C69.2115099,28.0499118 70.0877826,28.3850588 71.2270636,28.3850588 C74.0063529,28.3850588 74.9926339,25.8556471 74.9926339,23.6892059 C74.9926339,21.4974706 73.8230058,19.2867647 71.2106256,19.2867647" id="Fill-14"></path>
                    <path d="M78.2591207,15.5652412 L76.7253273,15.5652412 C76.6191124,15.5652412 76.5331289,15.6512412 76.5331289,15.7574765 L76.5331289,27.9973 C76.5331289,28.1035353 76.6191124,28.1895353 76.7253273,28.1895353 L78.2591207,28.1895353 C78.3653355,28.1895353 78.451319,28.1035353 78.451319,27.9973 L78.451319,15.7574765 C78.451319,15.6512412 78.3653355,15.5652412 78.2591207,15.5652412" id="Fill-16"></path>
                    <path d="M83.4097835,26.7611765 C82.8622711,26.7611765 82.0517504,26.3918824 82.0517504,25.5989118 C82.0517504,24.3278824 83.9370645,24.1912941 84.7475851,24.1912941 C84.9081719,24.1912941 85.0674942,24.1988824 85.228081,24.2077353 C85.3305025,24.2127941 85.432924,24.2178529 85.534081,24.2203824 L85.534081,24.7654706 C85.534081,25.9972941 84.7197669,26.7611765 83.4097835,26.7611765 L83.4097835,26.7611765 Z M87.4522711,22.9215294 C87.4522711,20.4414412 86.3281636,19.2867647 83.9155686,19.2867647 C82.9343455,19.2867647 81.9784116,19.5586765 81.0755851,20.0961765 C81.0136264,20.1341176 80.9782215,20.2024118 80.9820149,20.2732353 L81.064205,21.5796765 C81.0692628,21.6517647 81.113519,21.715 81.1805355,21.7440882 C81.2462876,21.7731765 81.3234198,21.7617941 81.3790562,21.7137353 C81.9682959,21.2179706 82.8458331,20.9106471 83.6702628,20.9106471 C84.9473702,20.9106471 85.482238,21.4127353 85.5302876,22.6875588 C85.0245025,22.6647941 84.6249322,22.6647941 84.0951223,22.6647941 C82.5878826,22.6647941 80.0361967,23.2819706 80.0361967,25.5989118 C80.0361967,27.3695 81.2184694,28.3850588 83.2795438,28.3850588 C84.4871058,28.3850588 85.2647504,27.8462941 85.6984612,27.4061765 L85.6984612,27.9980588 C85.6984612,28.1042941 85.7844446,28.1890294 85.889395,28.1890294 L87.3258248,28.1890294 C87.3814612,28.1890294 87.4333041,28.1662647 87.4699736,28.1245294 C87.506643,28.0827941 87.523081,28.0271471 87.5154942,27.9727647 C87.4737669,27.6515294 87.4522711,27.1254118 87.4522711,26.3653235 L87.4522711,22.9215294 Z" id="Fill-18"></path>
                    <path d="M94.2923826,26.4906559 C94.230424,26.4577735 94.1558207,26.4603029 94.0963909,26.4982441 C93.8245314,26.6727735 93.5084157,26.7613029 93.1556306,26.7613029 C92.4892587,26.7613029 92.0593413,26.2541559 92.0593413,25.4675088 L92.0593413,21.1068029 L94.0698372,21.1068029 C94.1760521,21.1068029 94.2620355,21.0208029 94.2620355,20.9145676 L94.2620355,19.6738912 C94.2620355,19.5676559 94.1760521,19.4816559 94.0698372,19.4816559 L92.0593413,19.4816559 L92.0593413,17.2583029 C92.0593413,17.1975971 92.0302587,17.1394206 91.9796802,17.1040088 C91.9303661,17.0673324 91.867143,17.0572147 91.8089777,17.0761853 L90.2751843,17.5656265 C90.1955231,17.5909206 90.1411512,17.6642735 90.1411512,17.7477441 L90.1411512,19.4816559 L88.4568868,19.4816559 C88.3506719,19.4816559 88.2646884,19.5676559 88.2646884,19.6738912 L88.2646884,20.9145676 C88.2646884,21.0208029 88.3506719,21.1068029 88.4568868,21.1068029 L90.1411512,21.1068029 L90.1411512,25.7786265 C90.1411512,27.4594206 91.118581,28.3851853 92.8951512,28.3851853 C93.4274901,28.3851853 93.9446554,28.2372147 94.2531843,28.14995 C94.3353744,28.1259206 94.3922752,28.0500382 94.3922752,27.9653029 L94.3922752,26.6588618 C94.3922752,26.5893029 94.3543413,26.5248029 94.2923826,26.4906559" id="Fill-20"></path>
                    <path d="M99.3069893,20.9106471 C100.527196,20.9106471 101.113907,21.8528529 101.180923,22.8443824 L97.2914355,22.8443824 C97.4027083,22.2006471 97.8123942,20.9106471 99.3069893,20.9106471 M99.3398653,19.2867647 C96.9297992,19.2867647 95.2480636,21.0965588 95.2480636,23.6892059 C95.2480636,26.7169118 96.8463446,28.3850588 99.7470223,28.3850588 C100.984931,28.3850588 101.67027,28.1257941 102.221576,27.9171176 C102.296179,27.8892941 102.368254,27.8614706 102.440328,27.8349118 C102.516196,27.8083529 102.566774,27.7362647 102.566774,27.6553235 L102.566774,26.1212353 C102.566774,26.0466176 102.523783,25.9783235 102.456766,25.9467059 C102.38975,25.9150882 102.310088,25.9252059 102.251923,25.9732647 C101.919369,26.2477059 100.787675,26.7611765 99.8127744,26.7611765 C98.6102702,26.7611765 97.3673033,25.8720882 97.2699397,24.3708824 L103.010601,24.3708824 C103.116816,24.3708824 103.202799,24.2848824 103.202799,24.1786471 C103.202799,20.9321471 101.902931,19.2867647 99.3398653,19.2867647" id="Fill-22"></path>
                    <path d="M106.556787,15.5652412 L105.022993,15.5652412 C104.916779,15.5652412 104.830795,15.6512412 104.830795,15.7574765 L104.830795,27.9973 C104.830795,28.1035353 104.916779,28.1895353 105.022993,28.1895353 L106.556787,28.1895353 C106.663002,28.1895353 106.748985,28.1035353 106.748985,27.9973 L106.748985,15.7574765 C106.748985,15.6512412 106.663002,15.5652412 106.556787,15.5652412" id="Fill-24"></path>
                    <path d="M112.371293,20.9106471 C113.591499,20.9106471 114.17821,21.8528529 114.245226,22.8443824 L110.355739,22.8443824 C110.467012,22.2006471 110.876698,20.9106471 112.371293,20.9106471 M112.404169,19.2867647 C109.994102,19.2867647 108.312367,21.0965588 108.312367,23.6892059 C108.312367,26.7169118 109.909383,28.3850588 112.811326,28.3850588 C114.04797,28.3850588 114.734574,28.1257941 115.284615,27.9171176 C115.359218,27.8892941 115.432557,27.8614706 115.503367,27.8349118 C115.580499,27.8083529 115.631078,27.7362647 115.631078,27.6553235 L115.631078,26.1212353 C115.631078,26.0466176 115.588086,25.9783235 115.521069,25.9467059 C115.452788,25.9150882 115.373127,25.9252059 115.316226,25.9732647 C114.983673,26.2477059 113.851979,26.7611765 112.877078,26.7611765 C111.674574,26.7611765 110.431607,25.8720882 110.334243,24.3708824 L116.074904,24.3708824 C116.181119,24.3708824 116.267102,24.2848824 116.267102,24.1786471 C116.267102,20.9321471 114.967235,19.2867647 112.404169,19.2867647" id="Fill-26"></path>
                    <path d="M122.774787,26.4906559 C122.712828,26.4577735 122.638225,26.4603029 122.578795,26.4982441 C122.3082,26.6727735 121.99082,26.7613029 121.638035,26.7613029 C120.971663,26.7613029 120.541745,26.2541559 120.541745,25.4675088 L120.541745,21.1068029 L122.552241,21.1068029 C122.658456,21.1068029 122.74444,21.0208029 122.74444,20.9145676 L122.74444,19.6738912 C122.74444,19.5676559 122.658456,19.4816559 122.552241,19.4816559 L120.541745,19.4816559 L120.541745,17.2583029 C120.541745,17.1975971 120.512663,17.1394206 120.463349,17.1040088 C120.414035,17.0673324 120.349547,17.0572147 120.291382,17.0761853 L118.757588,17.5656265 C118.677927,17.5909206 118.623555,17.6642735 118.623555,17.7477441 L118.623555,19.4816559 L116.939291,19.4816559 C116.833076,19.4816559 116.747093,19.5676559 116.747093,19.6738912 L116.747093,20.9145676 C116.747093,21.0208029 116.833076,21.1068029 116.939291,21.1068029 L118.623555,21.1068029 L118.623555,25.7786265 C118.623555,27.4594206 119.60225,28.3851853 121.377555,28.3851853 C121.909894,28.3851853 122.42706,28.2372147 122.735588,28.14995 C122.817779,28.1259206 122.874679,28.0500382 122.874679,27.9653029 L122.874679,26.6588618 C122.874679,26.5893029 122.836745,26.5248029 122.774787,26.4906559" id="Fill-28"></path>
                    <path d="M126.939421,22.9904559 C126.078322,22.5996618 125.549777,22.3302794 125.549777,21.7308088 C125.549777,21.1250147 126.237645,20.9100147 126.826884,20.9100147 C127.172083,20.9100147 128.044562,21.1224853 128.341711,21.3058676 C128.397347,21.3412794 128.468157,21.3450735 128.527587,21.3147206 C128.587017,21.2856324 128.626215,21.2274559 128.632537,21.1616912 L128.764041,19.8236324 C128.772893,19.7313088 128.715992,19.6465735 128.627479,19.6200147 C128.058471,19.4518088 127.438884,19.2861324 126.663769,19.2861324 C124.734198,19.2861324 123.534223,20.3421618 123.534223,22.0406618 C123.534223,23.4533382 124.75443,24.0452206 125.734388,24.5220147 C126.489273,24.8875147 127.140471,25.2036912 127.140471,25.7614265 C127.140471,26.7124853 125.996132,26.7605441 125.766,26.7605441 C125.384132,26.7605441 124.547058,26.58475 123.961612,26.2040735 C123.903446,26.1673971 123.831372,26.1636029 123.770678,26.1939559 C123.709983,26.2255735 123.669521,26.2862794 123.665727,26.3545735 L123.583537,27.7255147 C123.579744,27.8001324 123.618942,27.8696912 123.684694,27.9063676 C124.478777,28.3313088 125.371488,28.3856912 126.059355,28.3856912 C127.600736,28.3856912 129.156025,27.5231618 129.156025,25.5982794 C129.156025,23.9958971 127.926967,23.4381618 126.939421,22.9904559" id="Fill-30"></path>
                    <path d="M34.0667777,7.65918529 C35.1592736,8.17265588 36.1025628,8.61656765 36.1025628,9.66247941 C36.1025628,10.8867147 34.8798273,11.3306265 34.0591909,11.3306265 C33.1487777,11.3306265 32.0739843,10.9170676 31.7654554,10.7905971 C31.709819,10.7678324 31.6465959,10.7716265 31.5947529,10.8032441 C31.5429099,10.8335971 31.5087694,10.8879794 31.5024471,10.9474206 L31.3393314,12.4650676 C31.3292157,12.5548618 31.3835876,12.6395971 31.4708355,12.6686853 C32.1865215,12.9013912 33.0198025,13.1505382 33.8631992,13.1505382 C36.6298438,13.1505382 38.2154802,11.8440971 38.2154802,9.56509706 C38.2154802,7.31518529 36.5274223,6.50071471 35.1693893,5.84686176 C34.1780504,5.36880294 33.3207446,4.95524412 33.3207446,4.12939118 C33.3207446,2.93297941 34.5788851,2.80397941 35.1200752,2.80397941 C35.9331248,2.80397941 36.3529264,2.93677353 37.1874719,3.26433235 C37.2418438,3.28583235 37.302538,3.28077353 37.3531165,3.25168529 C37.403695,3.22259706 37.4378355,3.17200882 37.4466868,3.11383235 L37.6755545,1.61262647 C37.6894636,1.52156765 37.6363562,1.43303824 37.5491083,1.40268529 C36.7980174,1.13583235 35.8888686,0.984067647 35.0543231,0.984067647 C32.7175959,0.984067647 31.2078273,2.27659706 31.2078273,4.27609706 C31.2078273,6.31480294 32.7264471,7.02936176 34.0667777,7.65918529" id="Fill-32"></path>
                    <path d="M42.7227843,11.5266559 C42.1752719,11.5266559 41.3647512,11.1573618 41.3647512,10.3643912 C41.3647512,9.09336176 43.2500653,8.95677353 44.060586,8.95677353 C44.2211727,8.95677353 44.380495,8.96436176 44.5410818,8.97321471 C44.6435033,8.97827353 44.7459248,8.98333235 44.8483463,8.98586176 L44.8483463,9.53221471 C44.8483463,10.7627735 44.0340322,11.5266559 42.7227843,11.5266559 M46.7829744,12.8900088 C46.8196438,12.8482735 46.8360818,12.7926265 46.8297595,12.7382441 C46.7867678,12.4170088 46.7652719,11.8908912 46.7652719,11.1308029 L46.7652719,7.68700882 C46.7652719,5.20692059 45.6424289,4.05224412 43.2285694,4.05224412 C42.2473463,4.05224412 41.2914124,4.32415588 40.388586,4.86292059 C40.3266273,4.89959706 40.2912223,4.96789118 40.2962802,5.03871471 L40.3772058,6.34515588 C40.3822636,6.41724412 40.4265198,6.48047941 40.4935364,6.50956765 C40.5605529,6.53739118 40.6364207,6.52600882 40.692057,6.47921471 C41.2812967,5.98345 42.1588339,5.67612647 42.9832636,5.67612647 C44.2603711,5.67612647 44.7952388,6.17821471 44.8445529,7.45303824 C44.3375033,7.43027353 43.9379331,7.43027353 43.4081231,7.43027353 C41.9008835,7.43027353 39.3491975,8.04745 39.3491975,10.3643912 C39.3491975,12.1349794 40.5314702,13.1505382 42.5925446,13.1505382 C43.8013711,13.1505382 44.5777512,12.6117735 45.011462,12.1716559 L45.011462,12.7635382 C45.011462,12.8697735 45.0974455,12.9545088 45.2036603,12.9545088 L46.6388256,12.9545088 C46.694462,12.9545088 46.746305,12.9317441 46.7829744,12.8900088" id="Fill-34"></path>
                    <path d="M50.6185959,12.8280382 C50.646414,12.9039206 50.7184884,12.9545088 50.799414,12.9545088 L52.6265628,12.9545088 C52.7074884,12.9545088 52.7795628,12.9039206 52.807381,12.8280382 L55.7940421,4.50500882 C55.8142736,4.44556765 55.8054223,4.37980294 55.7700174,4.32921471 C55.7333479,4.27862647 55.6751826,4.24827353 55.613224,4.24827353 L54.0794306,4.24827353 C53.9972405,4.24827353 53.9239017,4.30012647 53.8973479,4.37853824 L51.7641992,10.6742441 L49.6765711,4.37980294 C49.6500174,4.30012647 49.5766785,4.24827353 49.4944884,4.24827353 L47.8127529,4.24827353 C47.7507942,4.24827353 47.6926289,4.27862647 47.6559595,4.32921471 C47.6205545,4.37980294 47.6117033,4.44556765 47.6319347,4.50500882 L50.6185959,12.8280382 Z" id="Fill-36"></path>
                    <path d="M60.3227157,5.67625294 C61.5429223,5.67625294 62.1296331,6.61845882 62.1966496,7.60998824 L58.307162,7.60998824 C58.4184347,6.96625294 58.8281207,5.67625294 60.3227157,5.67625294 M60.3555917,4.05237059 C57.9455256,4.05237059 56.2637901,5.86216471 56.2637901,8.45481176 C56.2637901,11.4825176 57.8620711,13.1506647 60.7627488,13.1506647 C62.0006579,13.1506647 62.6859967,12.8914 63.236038,12.6827235 C63.3119058,12.6549 63.3839802,12.6270765 63.4560545,12.6005176 C63.5319223,12.5739588 63.5825008,12.5018706 63.5825008,12.4209294 L63.5825008,10.8868412 C63.5825008,10.8122235 63.5395091,10.7439294 63.4724926,10.7123118 C63.4042116,10.6806941 63.3258149,10.6908118 63.2676496,10.7388706 C62.9350959,11.0133118 61.8034017,11.5267824 60.8285008,11.5267824 C59.6259967,11.5267824 58.3830298,10.6364294 58.2856661,9.13648824 L64.0263273,9.13648824 C64.1325421,9.13648824 64.2185256,9.05048824 64.2185256,8.94425294 C64.2185256,5.69775294 62.9186579,4.05237059 60.3555917,4.05237059" id="Fill-38"></path>
                    <path d="M71.6784769,11.5266559 C71.1309645,11.5266559 70.3204438,11.1573618 70.3204438,10.3643912 C70.3204438,9.09336176 72.2057579,8.95677353 73.0162785,8.95677353 C73.1768653,8.95677353 73.3361876,8.96436176 73.4967744,8.97321471 C73.5991959,8.97827353 73.7016174,8.98333235 73.8040388,8.98586176 L73.8040388,9.53221471 C73.8040388,10.7627735 72.9897248,11.5266559 71.6784769,11.5266559 L71.6784769,11.5266559 Z M75.7209645,7.68700882 C75.7209645,5.20692059 74.596857,4.05224412 72.184262,4.05224412 C71.2030388,4.05224412 70.247105,4.32415588 69.3442785,4.86292059 C69.2823198,4.89959706 69.2469149,4.96789118 69.2519727,5.03871471 L69.3328983,6.34515588 C69.3379562,6.41724412 69.3822124,6.48047941 69.4492289,6.50956765 C69.5162455,6.53739118 69.5921132,6.52600882 69.6477496,6.47921471 C70.2369893,5.98345 71.1145264,5.67612647 71.9389562,5.67612647 C73.2160636,5.67612647 73.7509314,6.17821471 73.8002455,7.45303824 C73.2931959,7.43027353 72.8936256,7.43027353 72.3638157,7.43027353 C70.856576,7.43027353 68.3048901,8.04745 68.3048901,10.3643912 C68.3048901,12.1349794 69.4871628,13.1505382 71.5482372,13.1505382 C72.7570636,13.1505382 73.5334438,12.6117735 73.9671545,12.1716559 L73.9671545,12.7635382 C73.9671545,12.8697735 74.053138,12.9545088 74.1593529,12.9545088 L75.5945182,12.9545088 C75.6501545,12.9545088 75.7019975,12.9317441 75.7386669,12.8900088 C75.7753364,12.8482735 75.7917744,12.7926265 75.7854521,12.7382441 C75.7424603,12.4170088 75.7209645,11.8908912 75.7209645,11.1308029 L75.7209645,7.68700882 Z" id="Fill-40"></path>
                    <path d="M80.4838165,12.9551412 L82.0176099,12.9551412 C82.1238248,12.9551412 82.2098083,12.8691412 82.2098083,12.7629059 L82.2098083,0.523082353 C82.2098083,0.416847059 82.1238248,0.330847059 82.0176099,0.330847059 L80.4838165,0.330847059 C80.3776017,0.330847059 80.2916182,0.416847059 80.2916182,0.523082353 L80.2916182,12.7629059 C80.2916182,12.8691412 80.3776017,12.9551412 80.4838165,12.9551412" id="Fill-42"></path>
                    <path d="M84.1059967,2.77122353 L85.8357818,2.77122353 C85.9419967,2.77122353 86.0279802,2.68522353 86.0279802,2.57898824 L86.0279802,0.848870588 C86.0279802,0.742635294 85.9419967,0.656635294 85.8357818,0.656635294 L84.1059967,0.656635294 C83.9997818,0.656635294 83.9137983,0.742635294 83.9137983,0.848870588 L83.9137983,2.57898824 C83.9137983,2.68522353 83.9997818,2.77122353 84.1059967,2.77122353" id="Fill-44"></path>
                    <path d="M84.2038661,4.24776765 C84.0976512,4.24776765 84.0116678,4.33376765 84.0116678,4.44000294 L84.0116678,12.7630324 C84.0116678,12.8692676 84.0976512,12.9552676 84.2038661,12.9552676 L85.7376595,12.9552676 C85.8438744,12.9552676 85.9298579,12.8692676 85.9298579,12.7630324 L85.9298579,4.44000294 C85.9298579,4.33376765 85.8438744,4.24776765 85.7376595,4.24776765 L84.2038661,4.24776765 Z" id="Fill-46"></path>
                    <path d="M87.4072562,5.87202941 L89.1737107,5.87202941 L89.1737107,12.7634118 C89.1737107,12.8696471 89.2596942,12.9556471 89.3659091,12.9556471 L90.8997025,12.9556471 C91.0046529,12.9556471 91.0906364,12.8696471 91.0906364,12.7634118 L91.0906364,5.87202941 L93.1023967,5.87202941 C93.2086116,5.87202941 93.294595,5.78602941 93.294595,5.67979412 L93.294595,4.43911765 C93.294595,4.33414706 93.2086116,4.24814706 93.1023967,4.24814706 L91.0906364,4.24814706 L91.0906364,3.54244118 C91.0906364,2.35994118 91.291686,1.75920588 92.3841818,1.75920588 C92.6459256,1.75920588 92.9089339,1.79335294 93.0530826,1.84520588 C93.1099835,1.86670588 93.1732066,1.85911765 93.2250496,1.82497059 C93.2756281,1.79208824 93.3072397,1.73644118 93.3097686,1.67573529 L93.3755207,0.435058824 C93.3805785,0.336411765 93.3110331,0.250411765 93.2136694,0.235235294 C92.8659421,0.180852941 92.5472975,0.135323529 92.155314,0.135323529 C89.5277603,0.135323529 89.1737107,1.92361765 89.1737107,3.67270588 L89.1737107,4.24814706 L87.4072562,4.24814706 C87.3010413,4.24814706 87.2150579,4.33414706 87.2150579,4.43911765 L87.2150579,5.67979412 C87.2150579,5.78602941 87.3010413,5.87202941 87.4072562,5.87202941" id="Fill-48"></path>
                    <path d="M95.8295901,7.60986176 C95.9408628,6.96612647 96.3505488,5.67612647 97.8451438,5.67612647 C99.0653504,5.67612647 99.6520612,6.61833235 99.7178132,7.60986176 L95.8295901,7.60986176 Z M100.758466,12.6825971 C100.833069,12.6547735 100.906408,12.62695 100.977218,12.6016559 C101.053086,12.5738324 101.103664,12.5017441 101.103664,12.4208029 L101.103664,10.8867147 C101.103664,10.8120971 101.060673,10.7450676 100.993656,10.71345 C100.92664,10.6805676 100.846979,10.6906853 100.790078,10.7387441 C100.457524,11.0131853 99.3258298,11.5266559 98.3509289,11.5266559 C97.1471603,11.5266559 95.9054579,10.6375676 95.8068298,9.13636176 L101.548755,9.13636176 C101.65497,9.13636176 101.740954,9.05036176 101.740954,8.94412647 C101.740954,5.69762647 100.441086,4.05224412 97.8767554,4.05224412 C95.4679537,4.05224412 93.7849537,5.86203824 93.7849537,8.45468529 C93.7849537,11.4823912 95.3832347,13.1505382 98.2851769,13.1505382 C99.5218215,13.1505382 100.20716,12.8912735 100.758466,12.6825971 L100.758466,12.6825971 Z" id="Fill-50"></path>
                    <path d="M40.4556025,22.0799941 L36.424495,22.0799941 C36.3195446,22.0799941 36.2335612,22.1659941 36.2335612,22.2722294 L36.2335612,23.6102882 C36.2335612,23.7165235 36.3195446,23.8025235 36.424495,23.8025235 L38.6322471,23.8025235 L38.6322471,26.9149647 C38.6170736,26.9174941 38.6031645,26.9212882 38.5879909,26.9250824 C38.2592306,26.9984353 37.9178256,27.0743176 36.9960322,27.0743176 C34.6213711,27.0743176 32.8966438,25.2809647 32.8966438,22.8097294 C32.8966438,20.3005529 34.6163132,18.5464059 37.0782223,18.5464059 C38.4286686,18.5464059 39.2771231,18.7576118 40.1053463,19.2989059 C40.1622471,19.3368471 40.2343215,19.3406412 40.2950157,19.3102882 C40.3569744,19.2812 40.3974372,19.2204941 40.402495,19.1534647 L40.5327347,17.5055529 C40.539057,17.4182882 40.487214,17.3373471 40.4037595,17.3082588 C39.4996686,16.9958765 38.7182306,16.7264941 36.9960322,16.7264941 C33.3379413,16.7264941 30.7837264,19.2078471 30.7837264,22.7616706 C30.7837264,26.4874941 33.2152884,28.8942294 36.9795942,28.8942294 C38.345214,28.8942294 39.503462,28.7247588 40.5175612,28.3782294 C40.5959579,28.3516706 40.6478008,28.2783176 40.6478008,28.1961118 L40.6478008,22.2722294 C40.6478008,22.1659941 40.5618174,22.0799941 40.4556025,22.0799941" id="Fill-52"></path>
                    <path d="M44.3705058,16.4005794 L42.6407207,16.4005794 C42.5345058,16.4005794 42.4485223,16.4865794 42.4485223,16.5928147 L42.4485223,18.3229324 C42.4485223,18.4291676 42.5345058,18.5139029 42.6407207,18.5139029 L44.3705058,18.5139029 C44.4767207,18.5139029 44.5627041,18.4291676 44.5627041,18.3229324 L44.5627041,16.5928147 C44.5627041,16.4865794 44.4767207,16.4005794 44.3705058,16.4005794" id="Fill-54"></path>
                    <path d="M44.2723835,19.9909529 L42.7385901,19.9909529 C42.6323752,19.9909529 42.5463917,20.0769529 42.5463917,20.1831882 L42.5463917,28.5062176 C42.5463917,28.6124529 42.6323752,28.6984529 42.7385901,28.6984529 L44.2723835,28.6984529 C44.3785983,28.6984529 44.4645818,28.6124529 44.4645818,28.5062176 L44.4645818,20.1831882 C44.4645818,20.0769529 44.3785983,19.9909529 44.2723835,19.9909529" id="Fill-56"></path>
                    <path d="M53.7526934,19.9909529 L52.2189,19.9909529 C52.1367099,19.9909529 52.0633711,20.0428059 52.0368174,20.1212176 L49.9036686,26.4169235 L47.8160405,20.1224824 C47.7894868,20.0440706 47.7161479,19.9909529 47.6339579,19.9909529 L45.9534868,19.9909529 C45.8902636,19.9909529 45.8320983,20.0213059 45.7954289,20.0731588 C45.760024,20.1237471 45.7511727,20.1882471 45.7726686,20.2476882 L48.7580653,28.5707176 C48.7858835,28.6478647 48.8579579,28.6984529 48.9388835,28.6984529 L50.7660322,28.6984529 C50.8482223,28.6984529 50.9202967,28.6478647 50.9468504,28.5707176 L53.9335116,20.2476882 C53.9550074,20.1882471 53.9461562,20.1237471 53.9094868,20.0731588 C53.8740818,20.0213059 53.8146521,19.9909529 53.7526934,19.9909529" id="Fill-58"></path>
                    <path d="M58.462438,21.4194382 C59.6826446,21.4194382 60.2693554,22.3616441 60.3363719,23.3531735 L56.4468843,23.3531735 C56.558157,22.7094382 56.967843,21.4194382 58.462438,21.4194382 M58.495314,19.7955559 C56.0852479,19.7955559 54.4035124,21.60535 54.4035124,24.1979971 C54.4035124,27.2257029 56.0017934,28.89385 58.9024711,28.89385 C60.1403802,28.89385 60.825719,28.6345853 61.3757603,28.4259088 C61.4516281,28.3980853 61.5237025,28.3702618 61.5957769,28.3449676 C61.6716446,28.3171441 61.7222231,28.2450559 61.7222231,28.1641147 L61.7222231,26.6300265 C61.7222231,26.5554088 61.6792314,26.4883794 61.6122149,26.4567618 C61.5439339,26.4238794 61.4655372,26.4339971 61.4073719,26.4820559 C61.0748182,26.7564971 59.943124,27.2699676 58.9682231,27.2699676 C57.765719,27.2699676 56.5227521,26.3808794 56.4253884,24.8796735 L62.1660496,24.8796735 C62.2722645,24.8796735 62.3582479,24.7936735 62.3582479,24.6874382 C62.3582479,21.4409382 61.0583802,19.7955559 58.495314,19.7955559" id="Fill-60"></path>
                </g>
            </g>
            <rect id="Rectangle" fill-opacity="0.8" fill="#DEE2E3" opacity="0.5" transform="translate(261.500000, 158.500000) scale(1, -1) translate(-261.500000, -158.500000) " x="0" y="130" width="523" height="57"></rect>
            <g id="NHS-BAT-logo" transform="translate(382.000000, 11.000000)">
                <polygon id="Fill-1" fill="#FEFEFE" points="92.3683241 15.0641311 128.884135 15.0641311 128.884135 1.19029508 92.3683241 1.19029508"></polygon>
                <g id="Group-21" transform="translate(0.000000, 0.314754)">
                    <path d="M91.5924118,15.4302951 L129.613692,15.4302951 L129.613692,0.105967213 L91.5924118,0.105967213 L91.5924118,15.4302951 Z M95.3092053,1.58478689 L92.6654147,13.9205246 L95.7896072,13.9205246 L97.5110473,5.38439344 L100.137455,13.9205246 L104.25353,13.9205246 L106.879938,1.58478689 L103.757852,1.58478689 L102.017449,10.1382295 L99.445297,1.58478689 L95.3092053,1.58478689 Z M108.102013,1.58478689 L105.529334,13.9205246 L108.8479,13.9205246 L109.948821,8.63580328 L113.869996,8.63580328 L112.769601,13.9205246 L116.088694,13.9205246 L118.661372,1.58478689 L115.342807,1.58478689 L114.366727,6.30347541 L110.445025,6.30347541 L111.421632,1.58478689 L108.102013,1.58478689 Z M127.392887,4.37718033 L128.189343,1.92052459 C127.356014,1.53180328 125.919549,1.37285246 124.392483,1.37285246 C121.677053,1.37285246 118.874182,2.32708197 118.874182,5.50819672 C118.874182,8.98990164 123.682942,8.24708197 123.682942,10.2263607 C123.682942,11.4990164 122.068433,11.6936393 121.039151,11.6936393 C119.956666,11.6936393 118.642409,11.4108852 117.986597,10.9864918 L117.205944,13.4961311 C118.288956,13.8318689 119.760713,14.132459 121.039151,14.132459 C123.913661,14.132459 127.090002,13.2490492 127.090002,9.83763934 C127.090002,6.09101639 122.281243,6.74518033 122.281243,4.99514754 C122.281243,4.00577049 123.345817,3.81167213 124.659548,3.81167213 C125.882677,3.81167213 126.753405,4.07659016 127.392887,4.37718033 L127.392887,4.37718033 Z" id="Fill-2" fill="#0D76BC"></path>
                    <path d="M3.02916565,22.862059 L3.74450091,22.862059 C4.66737821,22.862059 5.66926899,22.6029115 5.66926899,21.541141 C5.66926899,20.6734689 4.83699379,20.6346492 4.1474696,20.6346492 L3.51062105,20.6346492 L3.02916565,22.862059 Z M2.19689046,26.8248131 L2.82109685,26.8248131 C3.9394008,26.8248131 5.18781359,26.6952393 5.18781359,25.2972066 C5.18781359,24.3513705 4.30391626,24.2092066 3.32836331,24.2092066 L2.7431369,24.2092066 L2.19689046,26.8248131 Z M2.05413946,19.2103869 L4.74586493,19.2103869 C6.16336654,19.2103869 7.48973928,19.7281574 7.48973928,21.3732721 C7.48973928,22.4738623 6.6053152,23.3546492 5.55232905,23.522518 L5.55232905,23.5487475 C6.56633522,23.7040262 7.00828389,24.4809443 7.00828389,25.4524852 C7.00828389,28.0423869 4.09584746,28.2496 2.7431369,28.2496 L0.155182451,28.2496 L2.05413946,19.2103869 L2.05413946,19.2103869 Z" id="Fill-4" fill="#2A2422"></path>
                    <polygon id="Fill-5" fill="#2A2422" points="10.1681905 18.5366557 11.9107008 18.5366557 9.842655 28.2494426 8.10014466 28.2494426"></polygon>
                    <path d="M17.1899593,24.3642754 C17.1899593,23.4966033 16.8912884,22.7710951 15.8635866,22.7710951 C14.485065,22.7710951 13.7955408,24.2866361 13.7955408,25.4910951 C13.7955408,26.371882 14.1600562,27.0575213 15.1614202,27.0575213 C16.5136041,27.0575213 17.1899593,25.5042098 17.1899593,24.3642754 M19.0104296,24.3511607 C19.0104296,26.6950295 17.3848592,28.4046689 15.0181425,28.4046689 C13.1197122,28.4046689 11.9755972,27.2395541 11.9755972,25.3615213 C11.9755972,23.1341115 13.6917697,21.4244721 15.9415465,21.4244721 C17.7488479,21.4244721 19.0104296,22.5119475 19.0104296,24.3511607" id="Fill-6" fill="#2A2422"></path>
                    <path d="M25.135343,24.3642754 C25.135343,23.4966033 24.836672,22.7710951 23.8089702,22.7710951 C22.4304486,22.7710951 21.7414511,24.2866361 21.7414511,25.4910951 C21.7414511,26.371882 22.1054398,27.0575213 23.1068039,27.0575213 C24.4589877,27.0575213 25.135343,25.5042098 25.135343,24.3642754 M26.9558132,24.3511607 C26.9558132,26.6950295 25.3302428,28.4046689 22.9635261,28.4046689 C21.0656226,28.4046689 19.9209808,27.2395541 19.9209808,25.3615213 C19.9209808,23.1341115 21.6376801,21.4244721 23.8869302,21.4244721 C25.6942315,21.4244721 26.9558132,22.5119475 26.9558132,24.3511607" id="Fill-7" fill="#2A2422"></path>
                    <path d="M29.686624,25.4780852 C29.686624,26.151659 29.8946928,27.0581508 30.7533059,27.0581508 C32.027003,27.0581508 32.781845,25.5819541 32.781845,24.3512656 C32.781845,23.573823 32.4041606,22.7717246 31.5202633,22.7717246 C30.2718505,22.7717246 29.686624,24.4808393 29.686624,25.4780852 M35.8891813,18.5372328 L34.0818799,26.7732984 C33.9775821,27.3430033 33.8738111,27.9132328 33.8348311,28.2500197 L32.2097874,28.2500197 L32.3783495,27.2653639 L32.3525384,27.2653639 C31.8326298,27.9908721 31.1820856,28.4052984 30.1680794,28.4052984 C28.581489,28.4052984 27.8661537,27.0838557 27.8661537,25.6333639 C27.8661537,23.6393967 28.9586466,21.4251016 31.2342345,21.4251016 C32.0923208,21.4251016 32.7555071,21.7482492 33.3017536,22.3704131 L34.1466709,18.5372328 L35.8891813,18.5372328" id="Fill-8" fill="#2A2422"></path>
                    <path d="M41.7153183,27.136 C43.01588,27.136 43.4188487,26.2420984 43.6917085,25.1672131 L43.080671,25.1672131 C42.2357537,25.1672131 40.8308942,25.3104262 40.8308942,26.4361967 C40.8308942,26.9025574 41.2733697,27.136 41.7153183,27.136 M43.4188487,27.2262295 L43.3925109,27.2262295 C42.7946423,27.9774426 42.1967737,28.4049836 41.2338629,28.4049836 C40.0249569,28.4049836 39.1668706,27.7314098 39.1668706,26.5012459 C39.1668706,24.299541 41.6373584,24.1316721 43.2760977,24.1316721 L43.8871352,24.1316721 C43.9392841,23.9501639 43.9392841,23.755541 43.9392841,23.5619672 C43.9392841,22.8883934 43.2107799,22.6942951 42.5997424,22.6942951 C41.832785,22.6942951 41.0911119,22.8883934 40.4021145,23.2120656 L40.6491633,21.826623 C41.3897828,21.5674754 42.1446248,21.4253115 42.9247511,21.4253115 C44.263766,21.4253115 45.5258745,21.9168525 45.5258745,23.4838033 C45.5258745,24.3777049 44.8626881,26.9938361 44.7067682,28.2497049 L43.2365909,28.2497049 L43.4188487,27.2262295" id="Fill-9" fill="#2A2422"></path>
                    <path d="M47.6321628,22.5385443 C47.7101228,22.1372328 47.7749138,21.7868066 47.8007249,21.5795934 L49.504782,21.5795934 L49.3873153,22.2274623 L49.4131264,22.2274623 C49.8951086,21.7868066 50.5582949,21.4248393 51.3120834,21.4248393 C52.6252872,21.4248393 53.4965424,22.2411016 53.4965424,23.5614951 C53.4965424,24.0666754 53.3664336,24.5970361 53.2758315,25.0119869 L52.5731384,28.2492328 L50.830628,28.2492328 L51.4811722,25.102741 C51.5723011,24.6489705 51.6760721,24.1962492 51.6760721,23.703659 C51.6760721,23.1470689 51.2857456,22.7714623 50.726857,22.7714623 C49.5174242,22.7714623 49.0749488,23.898282 48.8542378,24.8955279 L48.1389025,28.2492328 L46.396919,28.2492328 L47.6321628,22.5385443" id="Fill-10" fill="#2A2422"></path>
                    <path d="M56.4220951,25.4780852 C56.4220951,26.151659 56.6301639,27.0581508 57.4882501,27.0581508 C58.7630007,27.0581508 59.517316,25.5819541 59.517316,24.3512656 C59.517316,23.573823 59.1396316,22.7717246 58.2552075,22.7717246 C57.0073215,22.7717246 56.4220951,24.4808393 56.4220951,25.4780852 M62.6246523,18.5372328 L60.8168241,26.7732984 C60.7130531,27.3430033 60.6098089,27.9132328 60.5703021,28.2500197 L58.9452585,28.2500197 L59.1138205,27.2653639 L59.0880095,27.2653639 C58.5675741,27.9908721 57.9175566,28.4052984 56.9035505,28.4052984 C55.31696,28.4052984 54.6016248,27.0838557 54.6016248,25.6333639 C54.6016248,23.6393967 55.6935909,21.4251016 57.9697055,21.4251016 C58.8277918,21.4251016 59.4909782,21.7482492 60.0372246,22.3704131 L60.8821419,18.5372328 L62.6246523,18.5372328" id="Fill-11" fill="#2A2422"></path>
                    <polygon id="Fill-12" fill="#2A2422" points="67.0344466 19.2105443 74.0429412 19.2105443 73.7437435 20.6348066 71.1826537 20.6348066 69.5302187 28.2497574 67.6323152 28.2497574 69.2836966 20.6348066 66.7215533 20.6348066"></polygon>
                    <path d="M73.3664805,22.4736525 C73.4186294,22.1888 73.4702516,21.8908328 73.5224005,21.5797508 L75.1869508,21.5797508 L74.953071,22.8366689 L74.9794088,22.8366689 C75.2912486,22.1111607 76.1498616,21.4249967 76.955799,21.4249967 C77.17651,21.4249967 77.4114433,21.4370623 77.6184586,21.4889967 L77.2555234,23.1860459 C77.05957,23.1209967 76.8125213,23.082177 76.5918103,23.082177 C75.3570932,23.082177 74.7581711,24.1832918 74.5374601,25.258177 L73.912727,28.2493902 L72.1707434,28.2493902 L73.3664805,22.4736525" id="Fill-13" fill="#2A2422"></path>
                    <path d="M79.7767378,27.136 C81.0778263,27.136 81.4802682,26.2420984 81.753128,25.1672131 L81.1420906,25.1672131 C80.2977,25.1672131 78.8923138,25.3104262 78.8923138,26.4361967 C78.8923138,26.9025574 79.3347892,27.136 79.7767378,27.136 M81.4802682,27.2262295 L81.4539304,27.2262295 C80.8565886,27.9774426 80.2581932,28.4049836 79.2952824,28.4049836 C78.0863764,28.4049836 77.2282901,27.7314098 77.2282901,26.5012459 C77.2282901,24.299541 79.6987779,24.1316721 81.3375172,24.1316721 L81.9485547,24.1316721 C82.0007036,23.9501639 82.0007036,23.755541 82.0007036,23.5619672 C82.0007036,22.8883934 81.2721994,22.6942951 80.6611619,22.6942951 C79.8942045,22.6942951 79.1530582,22.8883934 78.463534,23.2120656 L78.7111095,21.826623 C79.4512023,21.5674754 80.2060443,21.4253115 80.9861706,21.4253115 C82.3251855,21.4253115 83.587294,21.9168525 83.587294,23.4838033 C83.587294,24.3777049 82.9241076,26.9938361 82.767661,28.2497049 L81.2980105,28.2497049 L81.4802682,27.2262295" id="Fill-14" fill="#2A2422"></path>
                    <path d="M85.6948466,22.5385443 C85.7728065,22.1372328 85.8375976,21.7868066 85.8634086,21.5795934 L87.566939,21.5795934 L87.4489456,22.2274623 L87.4758101,22.2274623 C87.9572655,21.7868066 88.6204519,21.4248393 89.3742404,21.4248393 C90.6869175,21.4248393 91.5586994,22.2411016 91.5586994,23.5614951 C91.5586994,24.0666754 91.4285905,24.5970361 91.3379884,25.0119869 L90.6352953,28.2492328 L88.892785,28.2492328 L89.5433292,25.102741 C89.6349848,24.6489705 89.7382291,24.1962492 89.7382291,23.703659 C89.7382291,23.1470689 89.3473758,22.7714623 88.789014,22.7714623 C87.5795812,22.7714623 87.1371057,23.898282 86.9163948,24.8955279 L86.2015863,28.2492328 L84.4590759,28.2492328 L85.6948466,22.5385443" id="Fill-15" fill="#2A2422"></path>
                    <path d="M97.5011969,23.0048 C97.0460794,22.835882 96.5651507,22.693718 96.0715799,22.693718 C95.5506178,22.693718 94.9011271,22.835882 94.9011271,23.3672918 C94.9011271,24.2087344 97.1635461,24.5198164 97.1635461,26.1512918 C97.1635461,27.8866361 95.6422734,28.4044066 94.1468119,28.4044066 C93.4441188,28.4044066 92.7419524,28.3010623 92.1051039,28.0036197 L92.4822615,26.6176525 C92.9768858,26.8899148 93.4704566,27.1359475 94.1468119,27.1359475 C94.7315115,27.1359475 95.342549,26.9418492 95.342549,26.3973246 C95.342549,25.3224393 93.0811836,25.2190951 93.0811836,23.5482754 C93.0811836,21.9818492 94.6019294,21.4247344 95.9799243,21.4247344 C96.6172996,21.4247344 97.2673171,21.5411934 97.8783546,21.6964721 L97.5011969,23.0048" id="Fill-16" fill="#2A2422"></path>
                    <path d="M102.416941,22.7716721 C101.233319,22.7716721 100.570133,24.3260328 100.570133,25.4916721 C100.570133,26.3457049 100.86933,27.0580984 101.714774,27.0580984 C103.170729,27.0580984 103.639016,25.2451148 103.639016,24.1959344 C103.639016,23.3801967 103.222351,22.7716721 102.416941,22.7716721 M99.3612266,22.448 C99.4254909,22.1243279 99.4776398,21.8657049 99.5045044,21.5798033 L101.155886,21.5798033 L100.959932,22.4605902 L100.98627,22.4605902 C101.49301,21.7487213 102.117743,21.4250492 103.002167,21.4250492 C104.666718,21.4250492 105.460013,22.5508197 105.460013,24.1319344 C105.460013,26.2166557 104.301675,28.4052459 101.974992,28.4052459 C101.207508,28.4052459 100.414213,28.1460984 100.128184,27.213377 L100.101846,27.213377 L99.3348888,30.9694426 L97.5923785,30.9694426 L99.3612266,22.448" id="Fill-17" fill="#2A2422"></path>
                    <polygon id="Fill-18" fill="#2A2422" points="108.190455 18.5366557 109.932965 18.5366557 107.865446 28.2494426 106.122936 28.2494426"></polygon>
                    <path d="M112.286987,27.136 C113.587549,27.136 113.990518,26.2420984 114.263377,25.1672131 L113.65234,25.1672131 C112.806896,25.1672131 111.402563,25.3104262 111.402563,26.4361967 C111.402563,26.9025574 111.845038,27.136 112.286987,27.136 M113.990518,27.2262295 L113.96418,27.2262295 C113.365784,27.9774426 112.768443,28.4049836 111.805532,28.4049836 C110.596626,28.4049836 109.738539,27.7314098 109.738539,26.5012459 C109.738539,24.299541 112.209027,24.1316721 113.84724,24.1316721 L114.458277,24.1316721 C114.510426,23.9501639 114.510426,23.755541 114.510426,23.5619672 C114.510426,22.8883934 113.782449,22.6942951 113.170884,22.6942951 C112.403927,22.6942951 111.662254,22.8883934 110.973783,23.2120656 L111.220305,21.826623 C111.961452,21.5674754 112.716294,21.4253115 113.495893,21.4253115 C114.835435,21.4253115 116.097017,21.9168525 116.097017,23.4838033 C116.097017,24.3777049 115.43383,26.9938361 115.27791,28.2497049 L113.80826,28.2497049 L113.990518,27.2262295" id="Fill-19" fill="#2A2422"></path>
                    <path d="M118.203832,22.5385443 C118.281792,22.1372328 118.346583,21.7868066 118.372394,21.5795934 L120.075924,21.5795934 L119.958984,22.2274623 L119.984795,22.2274623 C120.466777,21.7868066 121.129437,21.4248393 121.883225,21.4248393 C123.196956,21.4248393 124.067684,22.2411016 124.067684,23.5614951 C124.067684,24.0666754 123.938102,24.5970361 123.846974,25.0119869 L123.144807,28.2492328 L121.402297,28.2492328 L122.052314,25.102741 C122.14397,24.6489705 122.247214,24.1962492 122.247214,23.703659 C122.247214,23.1470689 121.857414,22.7714623 121.298526,22.7714623 C120.08962,22.7714623 119.646091,23.898282 119.426433,24.8955279 L118.710571,28.2492328 L116.968588,28.2492328 L118.203832,22.5385443" id="Fill-20" fill="#2A2422"></path>
                </g>
                <g id="Group-24" transform="translate(124.841279, 19.724590)">
                    <mask id="mask-8" fill="white">
                        <use xlink:href="#path-7"></use>
                    </mask>
                    <g id="Clip-23"></g>
                    <path d="M0.761373775,2.17017705 L2.02242872,2.17017705 L2.32162638,0.79784918 L4.19371881,0.18932459 L3.76493906,2.17017705 L5.32519167,2.17017705 L5.05233183,3.43968525 L3.49260598,3.43968525 L2.85417716,6.35378361 C2.81572394,6.5090623 2.77674396,6.74198033 2.77674396,7.00060328 C2.77674396,7.40243934 3.05013056,7.64847213 3.43993033,7.64847213 C3.75229691,7.64847213 4.06466348,7.58394754 4.28537444,7.49319344 L3.98565002,8.83981639 C3.68697911,8.90486557 3.34880147,8.99509508 3.05013056,8.99509508 C1.86650881,8.99509508 1.03423362,8.52873443 1.03423362,7.24716066 C1.03423362,6.72886557 1.13853139,6.22420984 1.25547133,5.69332459 L1.75009563,3.43968525 L0.488513933,3.43968525 L0.761373775,2.17017705" id="Fill-22" fill="#2A2422" mask="url(#mask-8)"></path>
                </g>
            </g>
            <text id="Do-something-extraor" font-family="FrutigerNeueLTCom-Medium" font-size="24" font-weight="500" line-spacing="18" fill="#000000">
                <tspan x="10" y="40">Do something extraordinary</tspan>
            </text>
            <text id="Find-out-more" font-family="FrutigerNeueLTCom-Regular" font-size="18" font-weight="normal" fill="#000000">
                <tspan x="10" y="165.8">Find out more</tspan>
            </text>
            <polygon id="Triangle" fill="#000000" points="137 167 137 153 146 160"></polygon>
        </g>
    </g>
</svg>